solid OpenSCAD_Model
  facet normal 0 0 -1
    outer loop
      vertex 0.866013 -0.5 0
      vertex -0.866013 -0.5 0
      vertex -0.866013 0.5 0
    endloop
  endfacet
  facet normal 0 -1 0
    outer loop
      vertex -0.866013 -0.5 0
      vertex 0.866013 -0.5 4
      vertex -0.866013 -0.5 4
    endloop
  endfacet
  facet normal 0 -1 -0
    outer loop
      vertex 0.866013 -0.5 4
      vertex -0.866013 -0.5 0
      vertex 0.866013 -0.5 0
    endloop
  endfacet
  facet normal 0.500006 0.866022 -0
    outer loop
      vertex 0.866013 -0.5 0
      vertex -0.535206 0.309006 4
      vertex 0.866013 -0.5 4
    endloop
  endfacet
  facet normal 0.500006 0.866022 1.80446e-09
    outer loop
      vertex -0.866013 0.5 0
      vertex -0.535206 0.309006 4
      vertex 0.866013 -0.5 0
    endloop
  endfacet
  facet normal 0.500006 0.866022 1.17746e-09
    outer loop
      vertex -0.535206 0.309006 4
      vertex -0.866013 0.5 0
      vertex -0.766919 0.442788 4
    endloop
  endfacet
  facet normal 0.500006 0.866022 0
    outer loop
      vertex -0.766919 0.442788 4
      vertex -0.866013 0.5 0
      vertex -0.866013 0.5 4
    endloop
  endfacet
  facet normal 0 -0 -1
    outer loop
      vertex -0.866013 0.37079 4
      vertex -0.866013 0.309006 4
      vertex -0.95105 0.309006 4
    endloop
  endfacet
  facet normal 0 0 -1
    outer loop
      vertex -0.535206 0.309006 4
      vertex 0 1 4
      vertex 0.95105 0.309006 4
    endloop
  endfacet
  facet normal 0 0 -1
    outer loop
      vertex 0 1 4
      vertex -0.535206 0.309006 4
      vertex -0.766919 0.442788 4
    endloop
  endfacet
  facet normal 0 0 1
    outer loop
      vertex -0.866013 -0.5 4
      vertex -0.535206 0.309006 4
      vertex -0.866013 0.309006 4
    endloop
  endfacet
  facet normal 0 0 1
    outer loop
      vertex -0.535206 0.309006 4
      vertex -0.866013 -0.5 4
      vertex 0.866013 -0.5 4
    endloop
  endfacet
  facet normal 0 0 1
    outer loop
      vertex -0.866013 0.5 4
      vertex -0.866013 0.37079 4
      vertex -0.766919 0.442788 4
    endloop
  endfacet
  facet normal -1 0 0
    outer loop
      vertex -0.866013 0.5 0
      vertex -0.866013 0.37079 4
      vertex -0.866013 0.5 4
    endloop
  endfacet
  facet normal -1 0 0
    outer loop
      vertex -0.866013 0.5 0
      vertex -0.866013 0.309006 4
      vertex -0.866013 0.37079 4
    endloop
  endfacet
  facet normal -1 0 0
    outer loop
      vertex -0.866013 -0.5 0
      vertex -0.866013 0.309006 4
      vertex -0.866013 0.5 0
    endloop
  endfacet
  facet normal -1 -0 0
    outer loop
      vertex -0.866013 0.309006 4
      vertex -0.866013 -0.5 0
      vertex -0.866013 -0.5 4
    endloop
  endfacet
  facet normal 0 -1 0
    outer loop
      vertex -0.866013 0.309006 4
      vertex -0.95105 0.309006 8
      vertex -0.95105 0.309006 4
    endloop
  endfacet
  facet normal 0 -1 0
    outer loop
      vertex -0.535206 0.309006 4
      vertex -0.95105 0.309006 8
      vertex -0.866013 0.309006 4
    endloop
  endfacet
  facet normal 0 -1 0
    outer loop
      vertex -0.95105 0.309006 8
      vertex -0.535206 0.309006 4
      vertex 0.95105 0.309006 8
    endloop
  endfacet
  facet normal 0 -1 -0
    outer loop
      vertex 0.95105 0.309006 8
      vertex -0.535206 0.309006 4
      vertex 0.95105 0.309006 4
    endloop
  endfacet
  facet normal 0.587794 0.80901 -0
    outer loop
      vertex 0.95105 0.309006 4
      vertex 0 1 8
      vertex 0.95105 0.309006 8
    endloop
  endfacet
  facet normal 0.587794 0.80901 0
    outer loop
      vertex 0 1 8
      vertex 0.95105 0.309006 4
      vertex 0 1 4
    endloop
  endfacet
  facet normal 0 0 1
    outer loop
      vertex 0 1 8
      vertex -0.95105 0.309006 8
      vertex 0.95105 0.309006 8
    endloop
  endfacet
  facet normal -0.587794 0.80901 0
    outer loop
      vertex -0.766919 0.442788 4
      vertex 0 1 8
      vertex 0 1 4
    endloop
  endfacet
  facet normal -0.587794 0.80901 -4.2828e-09
    outer loop
      vertex 0 1 8
      vertex -0.766919 0.442788 4
      vertex -0.95105 0.309006 8
    endloop
  endfacet
  facet normal -0.587794 0.809011 -9.86783e-10
    outer loop
      vertex -0.866013 0.37079 4
      vertex -0.95105 0.309006 8
      vertex -0.766919 0.442788 4
    endloop
  endfacet
  facet normal -0.587794 0.809011 0
    outer loop
      vertex -0.95105 0.309006 8
      vertex -0.866013 0.37079 4
      vertex -0.95105 0.309006 4
    endloop
  endfacet
  facet normal 0 -0 -1
    outer loop
      vertex 0.707092 -0.707092 12
      vertex 1 0 12
      vertex 0 -4 12
    endloop
  endfacet
  facet normal 0 0 -1
    outer loop
      vertex 0.707092 0.707092 12
      vertex 0 -1 12
      vertex -0.707092 -0.707092 12
    endloop
  endfacet
  facet normal 0 0 -1
    outer loop
      vertex -0.640512 -0.640512 16
      vertex -0.972899 -0.221558 16
      vertex -0.221928 -0.221928 16
    endloop
  endfacet
  facet normal 0 -0 1
    outer loop
      vertex -0.640512 -0.640512 16
      vertex -0.221928 -0.221928 16
      vertex -0.972899 -0.221558 16
    endloop
  endfacet
  facet normal 0 0 -1
    outer loop
      vertex -3.12732 2.49396 16
      vertex 0.476399 0.476399 16
      vertex -0.972899 -0.221558 16
    endloop
  endfacet
  facet normal 0 0 -1
    outer loop
      vertex 0.476399 0.476399 16
      vertex -3.12732 2.49396 16
      vertex 0.674733 0.674733 16
    endloop
  endfacet
  facet normal 0 0 1
    outer loop
      vertex -3.12732 2.49396 16
      vertex 0.476399 0.476399 16
      vertex 0.674733 0.674733 16
    endloop
  endfacet
  facet normal 0 0 1
    outer loop
      vertex 0.476399 0.476399 16
      vertex -3.12732 2.49396 16
      vertex -0.972899 -0.221558 16
    endloop
  endfacet
  facet normal 0 0 -1
    outer loop
      vertex -0.433884 -0.900955 16
      vertex -0.529238 -0.780767 16
      vertex -0.343811 -0.857579 16
    endloop
  endfacet
  facet normal 0 -0 1
    outer loop
      vertex -0.433884 -0.900955 16
      vertex -0.343811 -0.857579 16
      vertex -0.529238 -0.780767 16
    endloop
  endfacet
  facet normal -0 0 -1
    outer loop
      vertex 0.974915 -0.222519 16
      vertex 0.94019 -0.239241 16
      vertex 0.944374 -0.222504 16
    endloop
  endfacet
  facet normal 0 0 1
    outer loop
      vertex 0.974915 -0.222519 16
      vertex 0.944374 -0.222504 16
      vertex 0.94019 -0.239241 16
    endloop
  endfacet
  facet normal -0 0 -1
    outer loop
      vertex 0.78183 0.623489 16
      vertex 0.645211 0.557696 16
      vertex 0.690554 0.667164 16
    endloop
  endfacet
  facet normal 0 0 1
    outer loop
      vertex 0.78183 0.623489 16
      vertex 0.690554 0.667164 16
      vertex 0.645211 0.557696 16
    endloop
  endfacet
  facet normal 0 -0 1
    outer loop
      vertex 0.944374 -0.222504 16
      vertex 1 0 16
      vertex 0.907837 -0.222486 16
    endloop
  endfacet
  facet normal 0 0 1
    outer loop
      vertex 0.707092 -0.707092 16
      vertex 0.94019 -0.239241 16
      vertex 0.891104 -0.26288 16
    endloop
  endfacet
  facet normal 0 0 1
    outer loop
      vertex 0.94019 -0.239241 16
      vertex 0.707092 -0.707092 16
      vertex 0 -4 16
    endloop
  endfacet
  facet normal 0 -0 1
    outer loop
      vertex 0.690554 0.667164 16
      vertex 0.707092 0.707092 16
      vertex 0.674733 0.674733 16
    endloop
  endfacet
  facet normal 0 -0 1
    outer loop
      vertex 0 -1 16
      vertex 0.15936 -0.615266 16
      vertex -0.343811 -0.857579 16
    endloop
  endfacet
  facet normal 0 0 1
    outer loop
      vertex -0.529238 -0.780767 16
      vertex -0.640512 -0.640512 16
      vertex -0.707092 -0.707092 16
    endloop
  endfacet
  facet normal 0 0 1
    outer loop
      vertex -0.221928 -0.221928 16
      vertex 0.15936 -0.615266 16
      vertex 0.322173 -0.222197 16
    endloop
  endfacet
  facet normal 0 0 1
    outer loop
      vertex -0.221928 -0.221928 16
      vertex -0.343811 -0.857579 16
      vertex 0.15936 -0.615266 16
    endloop
  endfacet
  facet normal 0 0 1
    outer loop
      vertex -0.221928 -0.221928 16
      vertex -0.529238 -0.780767 16
      vertex -0.343811 -0.857579 16
    endloop
  endfacet
  facet normal -0 0 1
    outer loop
      vertex -0.640512 -0.640512 16
      vertex -0.529238 -0.780767 16
      vertex -0.221928 -0.221928 16
    endloop
  endfacet
  facet normal 0 0 1
    outer loop
      vertex 0.674733 0.674733 16
      vertex 0.645211 0.557696 16
      vertex 0.690554 0.667164 16
    endloop
  endfacet
  facet normal 0 -0 1
    outer loop
      vertex 0.645211 0.557696 16
      vertex 0.674733 0.674733 16
      vertex 0.476399 0.476399 16
    endloop
  endfacet
  facet normal -0 0 1
    outer loop
      vertex 0.476399 0.476399 16
      vertex 0.322173 -0.222197 16
      vertex 0.645211 0.557696 16
    endloop
  endfacet
  facet normal 0 -0 1
    outer loop
      vertex 0.322173 -0.222197 16
      vertex 0.476399 0.476399 16
      vertex -0.221928 -0.221928 16
    endloop
  endfacet
  facet normal 0 0 1
    outer loop
      vertex 0.907837 -0.222486 16
      vertex 0.94019 -0.239241 16
      vertex 0.944374 -0.222504 16
    endloop
  endfacet
  facet normal 0 0 1
    outer loop
      vertex 0.94019 -0.239241 16
      vertex 0.907837 -0.222486 16
      vertex 0.891104 -0.26288 16
    endloop
  endfacet
  facet normal 0 0 -1
    outer loop
      vertex 0.891104 -0.26288 16
      vertex 0.322173 -0.222197 16
      vertex 0.907837 -0.222486 16
    endloop
  endfacet
  facet normal 0 -0 -1
    outer loop
      vertex 0.322173 -0.222197 16
      vertex 0.891104 -0.26288 16
      vertex 0.15936 -0.615266 16
    endloop
  endfacet
  facet normal 0 0 1
    outer loop
      vertex 0.322173 -0.222197 16
      vertex 0.891104 -0.26288 16
      vertex 0.907837 -0.222486 16
    endloop
  endfacet
  facet normal 0 0 1
    outer loop
      vertex 0.891104 -0.26288 16
      vertex 0.322173 -0.222197 16
      vertex 0.15936 -0.615266 16
    endloop
  endfacet
  facet normal 0.970142 -0.242536 0
    outer loop
      vertex 0.944374 -0.222504 16
      vertex 1 0 12
      vertex 1 0 16
    endloop
  endfacet
  facet normal 0.970143 -0.242534 9.97024e-08
    outer loop
      vertex 0.94019 -0.239241 16
      vertex 1 0 12
      vertex 0.944374 -0.222504 16
    endloop
  endfacet
  facet normal 0.970142 -0.242536 0
    outer loop
      vertex 0 -4 12
      vertex 0.94019 -0.239241 16
      vertex 0 -4 16
    endloop
  endfacet
  facet normal 0.970143 -0.242536 -3.61406e-09
    outer loop
      vertex 0.94019 -0.239241 16
      vertex 0 -4 12
      vertex 1 0 12
    endloop
  endfacet
  facet normal -0.92387 0.382706 0
    outer loop
      vertex 1 0 12
      vertex 0.907837 -0.222486 16
      vertex 1 0 16
    endloop
  endfacet
  facet normal -0.92387 0.382706 -2.2841e-08
    outer loop
      vertex 1 0 12
      vertex 0.891104 -0.26288 16
      vertex 0.907837 -0.222486 16
    endloop
  endfacet
  facet normal -0.92387 0.382706 5.42114e-09
    outer loop
      vertex 0.707092 -0.707092 12
      vertex 0.891104 -0.26288 16
      vertex 1 0 12
    endloop
  endfacet
  facet normal -0.92387 0.382706 0
    outer loop
      vertex 0.891104 -0.26288 16
      vertex 0.707092 -0.707092 12
      vertex 0.707092 -0.707092 16
    endloop
  endfacet
  facet normal -0.977713 0.209946 0
    outer loop
      vertex 0 -4 12
      vertex 0.707092 -0.707092 16
      vertex 0.707092 -0.707092 12
    endloop
  endfacet
  facet normal -0.977713 0.209946 0
    outer loop
      vertex 0.707092 -0.707092 16
      vertex 0 -4 12
      vertex 0 -4 16
    endloop
  endfacet
  facet normal -0.707107 0.707107 0
    outer loop
      vertex 0.707092 0.707092 12
      vertex 0.674733 0.674733 16
      vertex 0.707092 0.707092 16
    endloop
  endfacet
  facet normal -0.707107 0.707107 0
    outer loop
      vertex 0.707092 0.707092 12
      vertex 0.476399 0.476399 16
      vertex 0.674733 0.674733 16
    endloop
  endfacet
  facet normal -0.707107 0.707107 0
    outer loop
      vertex 0.707092 0.707092 12
      vertex -0.221928 -0.221928 16
      vertex 0.476399 0.476399 16
    endloop
  endfacet
  facet normal -0.707107 0.707107 0
    outer loop
      vertex -0.707092 -0.707092 12
      vertex -0.221928 -0.221928 16
      vertex 0.707092 0.707092 12
    endloop
  endfacet
  facet normal -0.707107 0.707107 0
    outer loop
      vertex -0.221928 -0.221928 16
      vertex -0.707092 -0.707092 12
      vertex -0.640512 -0.640512 16
    endloop
  endfacet
  facet normal -0.707107 0.707107 0
    outer loop
      vertex -0.640512 -0.640512 16
      vertex -0.707092 -0.707092 12
      vertex -0.707092 -0.707092 16
    endloop
  endfacet
  facet normal -0.382706 -0.92387 0
    outer loop
      vertex -0.707092 -0.707092 12
      vertex -0.529238 -0.780767 16
      vertex -0.707092 -0.707092 16
    endloop
  endfacet
  facet normal -0.382706 -0.92387 -1.41835e-08
    outer loop
      vertex -0.529238 -0.780767 16
      vertex -0.707092 -0.707092 12
      vertex -0.343811 -0.857579 16
    endloop
  endfacet
  facet normal -0.382706 -0.92387 5.61721e-09
    outer loop
      vertex 0 -1 12
      vertex -0.343811 -0.857579 16
      vertex -0.707092 -0.707092 12
    endloop
  endfacet
  facet normal -0.382706 -0.92387 0
    outer loop
      vertex -0.343811 -0.857579 16
      vertex 0 -1 12
      vertex 0 -1 16
    endloop
  endfacet
  facet normal 0.923881 -0.382679 0
    outer loop
      vertex 0.690554 0.667164 16
      vertex 0.707092 0.707092 12
      vertex 0.707092 0.707092 16
    endloop
  endfacet
  facet normal 0.923881 -0.38268 -3.00943e-09
    outer loop
      vertex 0.645211 0.557696 16
      vertex 0.707092 0.707092 12
      vertex 0.690554 0.667164 16
    endloop
  endfacet
  facet normal 0.923881 -0.38268 -1.26881e-09
    outer loop
      vertex 0.322173 -0.222197 16
      vertex 0.707092 0.707092 12
      vertex 0.645211 0.557696 16
    endloop
  endfacet
  facet normal 0.923881 -0.38268 8.3871e-09
    outer loop
      vertex 0 -1 12
      vertex 0.322173 -0.222197 16
      vertex 0.15936 -0.615266 16
    endloop
  endfacet
  facet normal 0.923881 -0.382679 0
    outer loop
      vertex 0 -1 12
      vertex 0.15936 -0.615266 16
      vertex 0 -1 16
    endloop
  endfacet
  facet normal 0.923881 -0.38268 -3.27511e-09
    outer loop
      vertex 0.322173 -0.222197 16
      vertex 0 -1 12
      vertex 0.707092 0.707092 12
    endloop
  endfacet
  facet normal 0 0 -1
    outer loop
      vertex 0.260039 0.372204 20
      vertex -0.00163478 0.998365 20
      vertex 0.0012486 0.996986 20
    endloop
  endfacet
  facet normal 0 0 -1
    outer loop
      vertex -1 0 20
      vertex 0.260039 0.372204 20
      vertex -0.918978 -0.19559 20
    endloop
  endfacet
  facet normal -0 0 -1
    outer loop
      vertex 0.260039 0.372204 20
      vertex -1 0 20
      vertex -0.00163478 0.998365 20
    endloop
  endfacet
  facet normal 0 0 -1
    outer loop
      vertex -0.972899 -0.221558 20
      vertex -1 0 20
      vertex -0.918978 -0.19559 20
    endloop
  endfacet
  facet normal -0 -0 -1
    outer loop
      vertex -1 0 20
      vertex -0.972899 -0.221558 20
      vertex -3.12732 2.49396 20
    endloop
  endfacet
  facet normal -0 0 -1
    outer loop
      vertex -0.00163478 0.998365 20
      vertex -1 0 20
      vertex -3.12732 2.49396 20
    endloop
  endfacet
  facet normal 0 0 1
    outer loop
      vertex -0.00163478 0.998365 20
      vertex -3.12732 2.49396 20
      vertex -1 0 20
    endloop
  endfacet
  facet normal 0 0 1
    outer loop
      vertex -1 0 20
      vertex -0.972899 -0.221558 20
      vertex -0.918978 -0.19559 20
    endloop
  endfacet
  facet normal 0 0 1
    outer loop
      vertex -0.972899 -0.221558 20
      vertex -1 0 20
      vertex -3.12732 2.49396 20
    endloop
  endfacet
  facet normal 0 0 -1
    outer loop
      vertex 0.0012486 0.996986 20
      vertex -0.00163478 0.998365 20
      vertex 0 1 20
    endloop
  endfacet
  facet normal 0 0 -1
    outer loop
      vertex -0.707092 -0.707092 20
      vertex -0.837553 -0.392155 20
      vertex -0.587689 -0.707092 20
    endloop
  endfacet
  facet normal 0 0 -1
    outer loop
      vertex 0.707092 -0.707092 20
      vertex -0.0313201 -0.707092 20
      vertex 0.584295 -0.41063 20
    endloop
  endfacet
  facet normal 0 0 -1
    outer loop
      vertex 0.584295 -0.41063 20
      vertex 0.506282 -0.222288 20
      vertex 0.974915 -0.222519 20
    endloop
  endfacet
  facet normal 0 -0 1
    outer loop
      vertex 0.584295 -0.41063 20
      vertex 0.974915 -0.222519 20
      vertex 0.506282 -0.222288 20
    endloop
  endfacet
  facet normal 0 0 -1
    outer loop
      vertex -0.433884 -0.900955 20
      vertex -0.587689 -0.707092 20
      vertex -0.0313201 -0.707092 20
    endloop
  endfacet
  facet normal 0 -0 1
    outer loop
      vertex -0.433884 -0.900955 20
      vertex -0.0313201 -0.707092 20
      vertex -0.587689 -0.707092 20
    endloop
  endfacet
  facet normal 0 0 -1
    outer loop
      vertex -0.837553 -0.392153 20
      vertex -0.972899 -0.221558 20
      vertex -0.908208 -0.22159 20
    endloop
  endfacet
  facet normal 0 0 1
    outer loop
      vertex -0.837553 -0.392153 20
      vertex -0.908208 -0.22159 20
      vertex -0.972899 -0.221558 20
    endloop
  endfacet
  facet normal 0 0 -1
    outer loop
      vertex 0.260039 0.372204 20
      vertex 0.0012486 0.996986 20
      vertex 0.78183 0.623489 20
    endloop
  endfacet
  facet normal 0 -0 1
    outer loop
      vertex 0.260039 0.372204 20
      vertex 0.78183 0.623489 20
      vertex 0.0012486 0.996986 20
    endloop
  endfacet
  facet normal 0 0 -1
    outer loop
      vertex -0.0313201 -0.707092 20
      vertex 0.506282 -0.222288 20
      vertex 0.584295 -0.41063 20
    endloop
  endfacet
  facet normal 0 0 -1
    outer loop
      vertex -0.837553 -0.392155 20
      vertex -0.0313201 -0.707092 20
      vertex -0.587689 -0.707092 20
    endloop
  endfacet
  facet normal 0 0 -1
    outer loop
      vertex -0.837553 -0.392153 20
      vertex -0.0313201 -0.707092 20
      vertex -0.837553 -0.392155 20
    endloop
  endfacet
  facet normal 0 0 -1
    outer loop
      vertex -0.908208 -0.22159 20
      vertex -0.0313201 -0.707092 20
      vertex -0.837553 -0.392153 20
    endloop
  endfacet
  facet normal 0 0 -1
    outer loop
      vertex -0.0313201 -0.707092 20
      vertex -0.908208 -0.22159 20
      vertex 0.506282 -0.222288 20
    endloop
  endfacet
  facet normal 0 0 -1
    outer loop
      vertex -0.908208 -0.22159 20
      vertex 0.260039 0.372204 20
      vertex 0.506282 -0.222288 20
    endloop
  endfacet
  facet normal 0 0 -1
    outer loop
      vertex 0.260039 0.372204 20
      vertex -0.908208 -0.22159 20
      vertex -0.918978 -0.19559 20
    endloop
  endfacet
  facet normal -0.433881 0.90097 -2.8667e-09
    outer loop
      vertex 0.891104 -0.26288 16
      vertex 0.584295 -0.41063 20
      vertex 0.974915 -0.222519 20
    endloop
  endfacet
  facet normal -0.433881 0.90097 5.53265e-09
    outer loop
      vertex 0.584295 -0.41063 20
      vertex 0.15936 -0.615266 16
      vertex -0.0313201 -0.707092 20
    endloop
  endfacet
  facet normal -0.433881 0.90097 0
    outer loop
      vertex 0.94019 -0.239241 16
      vertex 0.974915 -0.222519 20
      vertex 0.974915 -0.222519 16
    endloop
  endfacet
  facet normal -0.433881 0.90097 1.30646e-09
    outer loop
      vertex 0.891104 -0.26288 16
      vertex 0.974915 -0.222519 20
      vertex 0.94019 -0.239241 16
    endloop
  endfacet
  facet normal -0.433881 0.90097 6.93426e-10
    outer loop
      vertex 0.584295 -0.41063 20
      vertex 0.891104 -0.26288 16
      vertex 0.15936 -0.615266 16
    endloop
  endfacet
  facet normal -0.433881 0.90097 5.52056e-09
    outer loop
      vertex -0.343811 -0.857579 16
      vertex -0.0313201 -0.707092 20
      vertex 0.15936 -0.615266 16
    endloop
  endfacet
  facet normal -0.433881 0.90097 5.4932e-09
    outer loop
      vertex -0.0313201 -0.707092 20
      vertex -0.343811 -0.857579 16
      vertex -0.433884 -0.900955 20
    endloop
  endfacet
  facet normal -0.433881 0.90097 0
    outer loop
      vertex -0.433884 -0.900955 20
      vertex -0.343811 -0.857579 16
      vertex -0.433884 -0.900955 16
    endloop
  endfacet
  facet normal 0.433881 -0.90097 -5.4932e-09
    outer loop
      vertex -0.343811 -0.857579 16
      vertex -0.0313201 -0.707092 20
      vertex -0.433884 -0.900955 20
    endloop
  endfacet
  facet normal 0.433881 -0.90097 -5.53265e-09
    outer loop
      vertex -0.0313201 -0.707092 20
      vertex 0.15936 -0.615266 16
      vertex 0.584295 -0.41063 20
    endloop
  endfacet
  facet normal 0.433881 -0.90097 0
    outer loop
      vertex -0.343811 -0.857579 16
      vertex -0.433884 -0.900955 20
      vertex -0.433884 -0.900955 16
    endloop
  endfacet
  facet normal 0.433881 -0.90097 -5.52056e-09
    outer loop
      vertex -0.0313201 -0.707092 20
      vertex -0.343811 -0.857579 16
      vertex 0.15936 -0.615266 16
    endloop
  endfacet
  facet normal 0.433881 -0.90097 -6.93426e-10
    outer loop
      vertex 0.891104 -0.26288 16
      vertex 0.584295 -0.41063 20
      vertex 0.15936 -0.615266 16
    endloop
  endfacet
  facet normal 0.433881 -0.90097 2.8667e-09
    outer loop
      vertex 0.584295 -0.41063 20
      vertex 0.891104 -0.26288 16
      vertex 0.974915 -0.222519 20
    endloop
  endfacet
  facet normal 0.433881 -0.90097 -1.30646e-09
    outer loop
      vertex 0.94019 -0.239241 16
      vertex 0.974915 -0.222519 20
      vertex 0.891104 -0.26288 16
    endloop
  endfacet
  facet normal 0.433881 -0.90097 0
    outer loop
      vertex 0.974915 -0.222519 20
      vertex 0.94019 -0.239241 16
      vertex 0.974915 -0.222519 16
    endloop
  endfacet
  facet normal -0.000493625 -1 0
    outer loop
      vertex -0.972899 -0.221558 16
      vertex -0.908208 -0.22159 20
      vertex -0.972899 -0.221558 20
    endloop
  endfacet
  facet normal -0.000493527 -1 -2.35697e-09
    outer loop
      vertex -0.908208 -0.22159 20
      vertex -0.221928 -0.221928 16
      vertex 0.506282 -0.222288 20
    endloop
  endfacet
  facet normal -0.000493523 -1 -1.64007e-09
    outer loop
      vertex -0.908208 -0.22159 20
      vertex -0.972899 -0.221558 16
      vertex -0.221928 -0.221928 16
    endloop
  endfacet
  facet normal -0.000493537 -1 -6.53522e-10
    outer loop
      vertex 0.322173 -0.222197 16
      vertex 0.506282 -0.222288 20
      vertex -0.221928 -0.221928 16
    endloop
  endfacet
  facet normal -0.000493521 -1 -1.35409e-09
    outer loop
      vertex 0.907837 -0.222486 16
      vertex 0.506282 -0.222288 20
      vertex 0.322173 -0.222197 16
    endloop
  endfacet
  facet normal -0.000493523 -1 -1.50606e-09
    outer loop
      vertex 0.506282 -0.222288 20
      vertex 0.907837 -0.222486 16
      vertex 0.974915 -0.222519 20
    endloop
  endfacet
  facet normal -0.000493482 -1 -2.19414e-09
    outer loop
      vertex 0.944374 -0.222504 16
      vertex 0.974915 -0.222519 20
      vertex 0.907837 -0.222486 16
    endloop
  endfacet
  facet normal -0.000493769 -1 -0
    outer loop
      vertex 0.974915 -0.222519 20
      vertex 0.944374 -0.222504 16
      vertex 0.974915 -0.222519 16
    endloop
  endfacet
  facet normal 0.000493523 1 1.50606e-09
    outer loop
      vertex 0.907837 -0.222486 16
      vertex 0.506282 -0.222288 20
      vertex 0.974915 -0.222519 20
    endloop
  endfacet
  facet normal 0.000493527 1 2.35697e-09
    outer loop
      vertex 0.506282 -0.222288 20
      vertex -0.221928 -0.221928 16
      vertex -0.908208 -0.22159 20
    endloop
  endfacet
  facet normal 0.000493769 1 0
    outer loop
      vertex 0.944374 -0.222504 16
      vertex 0.974915 -0.222519 20
      vertex 0.974915 -0.222519 16
    endloop
  endfacet
  facet normal 0.000493482 1 2.19414e-09
    outer loop
      vertex 0.907837 -0.222486 16
      vertex 0.974915 -0.222519 20
      vertex 0.944374 -0.222504 16
    endloop
  endfacet
  facet normal 0.000493521 1 1.35409e-09
    outer loop
      vertex 0.506282 -0.222288 20
      vertex 0.907837 -0.222486 16
      vertex 0.322173 -0.222197 16
    endloop
  endfacet
  facet normal 0.000493537 1 6.53522e-10
    outer loop
      vertex 0.506282 -0.222288 20
      vertex 0.322173 -0.222197 16
      vertex -0.221928 -0.221928 16
    endloop
  endfacet
  facet normal 0.000493523 1 1.64007e-09
    outer loop
      vertex -0.972899 -0.221558 16
      vertex -0.908208 -0.22159 20
      vertex -0.221928 -0.221928 16
    endloop
  endfacet
  facet normal 0.000493625 1 0
    outer loop
      vertex -0.908208 -0.22159 20
      vertex -0.972899 -0.221558 16
      vertex -0.972899 -0.221558 20
    endloop
  endfacet
  facet normal -0.43389 0.900966 -1.30622e-09
    outer loop
      vertex 0.476399 0.476399 16
      vertex 0.260039 0.372204 20
      vertex 0.78183 0.623489 20
    endloop
  endfacet
  facet normal -0.43389 0.900966 -1.96989e-09
    outer loop
      vertex -0.972899 -0.221558 16
      vertex 0.260039 0.372204 20
      vertex 0.476399 0.476399 16
    endloop
  endfacet
  facet normal -0.433889 0.900966 0
    outer loop
      vertex 0.645211 0.557696 16
      vertex 0.78183 0.623489 20
      vertex 0.78183 0.623489 16
    endloop
  endfacet
  facet normal -0.43389 0.900966 5.42237e-09
    outer loop
      vertex 0.476399 0.476399 16
      vertex 0.78183 0.623489 20
      vertex 0.645211 0.557696 16
    endloop
  endfacet
  facet normal -0.43389 0.900966 -4.00417e-09
    outer loop
      vertex 0.260039 0.372204 20
      vertex -0.972899 -0.221558 16
      vertex -0.918978 -0.19559 20
    endloop
  endfacet
  facet normal -0.43389 0.900966 0
    outer loop
      vertex -0.918978 -0.19559 20
      vertex -0.972899 -0.221558 16
      vertex -0.972899 -0.221558 20
    endloop
  endfacet
  facet normal 0.43389 -0.900966 0
    outer loop
      vertex -0.972899 -0.221558 16
      vertex -0.918978 -0.19559 20
      vertex -0.972899 -0.221558 20
    endloop
  endfacet
  facet normal 0.43389 -0.900966 4.00417e-09
    outer loop
      vertex -0.918978 -0.19559 20
      vertex -0.972899 -0.221558 16
      vertex 0.260039 0.372204 20
    endloop
  endfacet
  facet normal 0.43389 -0.900966 1.96989e-09
    outer loop
      vertex 0.260039 0.372204 20
      vertex -0.972899 -0.221558 16
      vertex 0.476399 0.476399 16
    endloop
  endfacet
  facet normal 0.43389 -0.900966 1.30622e-09
    outer loop
      vertex 0.260039 0.372204 20
      vertex 0.476399 0.476399 16
      vertex 0.78183 0.623489 20
    endloop
  endfacet
  facet normal 0.43389 -0.900966 -5.42237e-09
    outer loop
      vertex 0.645211 0.557696 16
      vertex 0.78183 0.623489 20
      vertex 0.476399 0.476399 16
    endloop
  endfacet
  facet normal 0.433889 -0.900966 0
    outer loop
      vertex 0.78183 0.623489 20
      vertex 0.645211 0.557696 16
      vertex 0.78183 0.623489 16
    endloop
  endfacet
  facet normal -0.43162 -0.902056 0
    outer loop
      vertex -3.12732 2.49396 16
      vertex -0.00163478 0.998365 20
      vertex -3.12732 2.49396 20
    endloop
  endfacet
  facet normal -0.43162 -0.902056 -2.52141e-09
    outer loop
      vertex 0.674733 0.674733 16
      vertex -0.00163478 0.998365 20
      vertex -3.12732 2.49396 16
    endloop
  endfacet
  facet normal -0.431624 -0.902054 -8.42528e-07
    outer loop
      vertex -0.00163478 0.998365 20
      vertex 0.674733 0.674733 16
      vertex 0.0012486 0.996986 20
    endloop
  endfacet
  facet normal -0.43162 -0.902056 -3.55264e-09
    outer loop
      vertex 0.0012486 0.996986 20
      vertex 0.674733 0.674733 16
      vertex 0.78183 0.623489 20
    endloop
  endfacet
  facet normal -0.431619 -0.902056 -4.4644e-08
    outer loop
      vertex 0.690554 0.667164 16
      vertex 0.78183 0.623489 20
      vertex 0.674733 0.674733 16
    endloop
  endfacet
  facet normal -0.43162 -0.902055 -0
    outer loop
      vertex 0.78183 0.623489 20
      vertex 0.690554 0.667164 16
      vertex 0.78183 0.623489 16
    endloop
  endfacet
  facet normal 0.43162 0.902056 3.55264e-09
    outer loop
      vertex 0.674733 0.674733 16
      vertex 0.0012486 0.996986 20
      vertex 0.78183 0.623489 20
    endloop
  endfacet
  facet normal 0.431624 0.902054 8.42528e-07
    outer loop
      vertex 0.0012486 0.996986 20
      vertex 0.674733 0.674733 16
      vertex -0.00163478 0.998365 20
    endloop
  endfacet
  facet normal 0.43162 0.902055 0
    outer loop
      vertex 0.690554 0.667164 16
      vertex 0.78183 0.623489 20
      vertex 0.78183 0.623489 16
    endloop
  endfacet
  facet normal 0.431619 0.902056 4.4644e-08
    outer loop
      vertex 0.674733 0.674733 16
      vertex 0.78183 0.623489 20
      vertex 0.690554 0.667164 16
    endloop
  endfacet
  facet normal 0.43162 0.902056 2.52141e-09
    outer loop
      vertex -3.12732 2.49396 16
      vertex -0.00163478 0.998365 20
      vertex 0.674733 0.674733 16
    endloop
  endfacet
  facet normal 0.43162 0.902056 0
    outer loop
      vertex -0.00163478 0.998365 20
      vertex -3.12732 2.49396 16
      vertex -3.12732 2.49396 20
    endloop
  endfacet
  facet normal 0.783394 0.621525 0
    outer loop
      vertex -0.837553 -0.392155 20
      vertex -3.12732 2.49396 16
      vertex -3.12732 2.49396 20
    endloop
  endfacet
  facet normal 0.783394 0.621525 9.6524e-09
    outer loop
      vertex -0.837553 -0.392155 20
      vertex -0.640512 -0.640512 16
      vertex -3.12732 2.49396 16
    endloop
  endfacet
  facet normal 0.783394 0.621525 4.34392e-09
    outer loop
      vertex -0.587689 -0.707092 20
      vertex -0.640512 -0.640512 16
      vertex -0.837553 -0.392155 20
    endloop
  endfacet
  facet normal 0.783394 0.621525 1.83835e-09
    outer loop
      vertex -0.587689 -0.707092 20
      vertex -0.529238 -0.780767 16
      vertex -0.640512 -0.640512 16
    endloop
  endfacet
  facet normal 0.783394 0.621525 1.85865e-09
    outer loop
      vertex -0.433884 -0.900955 20
      vertex -0.529238 -0.780767 16
      vertex -0.587689 -0.707092 20
    endloop
  endfacet
  facet normal 0.783395 0.621525 0
    outer loop
      vertex -0.529238 -0.780767 16
      vertex -0.433884 -0.900955 20
      vertex -0.433884 -0.900955 16
    endloop
  endfacet
  facet normal -0.783394 -0.621525 0
    outer loop
      vertex -3.12732 2.49396 16
      vertex -0.837553 -0.392155 20
      vertex -3.12732 2.49396 20
    endloop
  endfacet
  facet normal -0.783394 -0.621525 -9.6524e-09
    outer loop
      vertex -0.640512 -0.640512 16
      vertex -0.837553 -0.392155 20
      vertex -3.12732 2.49396 16
    endloop
  endfacet
  facet normal -0.783394 -0.621525 -4.34392e-09
    outer loop
      vertex -0.640512 -0.640512 16
      vertex -0.587689 -0.707092 20
      vertex -0.837553 -0.392155 20
    endloop
  endfacet
  facet normal -0.783394 -0.621525 -1.83835e-09
    outer loop
      vertex -0.529238 -0.780767 16
      vertex -0.587689 -0.707092 20
      vertex -0.640512 -0.640512 16
    endloop
  endfacet
  facet normal -0.783395 -0.621525 -0
    outer loop
      vertex -0.433884 -0.900955 20
      vertex -0.529238 -0.780767 16
      vertex -0.433884 -0.900955 16
    endloop
  endfacet
  facet normal -0.783394 -0.621525 -1.85865e-09
    outer loop
      vertex -0.529238 -0.780767 16
      vertex -0.433884 -0.900955 20
      vertex -0.587689 -0.707092 20
    endloop
  endfacet
  facet normal -0.92387 -0.382706 0
    outer loop
      vertex -0.918978 -0.19559 20
      vertex -1 0 24
      vertex -1 0 20
    endloop
  endfacet
  facet normal -0.92387 -0.382707 1.73457e-08
    outer loop
      vertex -0.908208 -0.22159 20
      vertex -1 0 24
      vertex -0.918978 -0.19559 20
    endloop
  endfacet
  facet normal -0.92387 -0.382706 -2.06578e-10
    outer loop
      vertex -0.837553 -0.392153 20
      vertex -1 0 24
      vertex -0.908208 -0.22159 20
    endloop
  endfacet
  facet normal -0.922441 -0.386138 -0.000316806
    outer loop
      vertex -0.707092 -0.707092 24
      vertex -0.837553 -0.392153 20
      vertex -0.837553 -0.392155 20
    endloop
  endfacet
  facet normal -0.92387 -0.382706 -0
    outer loop
      vertex -0.707092 -0.707092 24
      vertex -0.837553 -0.392155 20
      vertex -0.707092 -0.707092 20
    endloop
  endfacet
  facet normal -0.92387 -0.382706 5.43599e-09
    outer loop
      vertex -0.837553 -0.392153 20
      vertex -0.707092 -0.707092 24
      vertex -1 0 24
    endloop
  endfacet
  facet normal 0.923882 0.382678 0
    outer loop
      vertex 0 1 24
      vertex 0.0012486 0.996986 20
      vertex 0 1 20
    endloop
  endfacet
  facet normal 0.923881 0.38268 -1.55439e-09
    outer loop
      vertex 0 1 24
      vertex 0.260039 0.372204 20
      vertex 0.0012486 0.996986 20
    endloop
  endfacet
  facet normal 0.923881 0.38268 1.21368e-09
    outer loop
      vertex 0.692998 -0.673065 24
      vertex 0.260039 0.372204 20
      vertex 0 1 24
    endloop
  endfacet
  facet normal 0.923881 0.382679 -1.34613e-08
    outer loop
      vertex 0.260039 0.372204 20
      vertex 0.692998 -0.673065 24
      vertex 0.506282 -0.222288 20
    endloop
  endfacet
  facet normal 0.923881 0.38268 -3.92594e-09
    outer loop
      vertex 0.506282 -0.222288 20
      vertex 0.692998 -0.673065 24
      vertex 0.584295 -0.41063 20
    endloop
  endfacet
  facet normal 0.923881 0.382679 -0
    outer loop
      vertex 0.707092 -0.707092 20
      vertex 0.692998 -0.673065 24
      vertex 0.707092 -0.707092 24
    endloop
  endfacet
  facet normal 0.923881 0.38268 -7.75693e-09
    outer loop
      vertex 0.692998 -0.673065 24
      vertex 0.707092 -0.707092 20
      vertex 0.584295 -0.41063 20
    endloop
  endfacet
  facet normal 0 -1 0
    outer loop
      vertex -0.0313201 -0.707092 20
      vertex 0.389635 -0.707092 24
      vertex -0.707092 -0.707092 24
    endloop
  endfacet
  facet normal 0 -1 0
    outer loop
      vertex 0.707092 -0.707092 20
      vertex 0.389635 -0.707092 24
      vertex -0.0313201 -0.707092 20
    endloop
  endfacet
  facet normal 0 -1 0
    outer loop
      vertex -0.587689 -0.707092 20
      vertex -0.707092 -0.707092 24
      vertex -0.707092 -0.707092 20
    endloop
  endfacet
  facet normal 0 -1 0
    outer loop
      vertex -0.0313201 -0.707092 20
      vertex -0.707092 -0.707092 24
      vertex -0.587689 -0.707092 20
    endloop
  endfacet
  facet normal 0 -1 0
    outer loop
      vertex 0.389635 -0.707092 24
      vertex 0.707092 -0.707092 20
      vertex 0.654309 -0.707092 24
    endloop
  endfacet
  facet normal 0 -1 0
    outer loop
      vertex 0.654309 -0.707092 24
      vertex 0.707092 -0.707092 20
      vertex 0.707092 -0.707092 24
    endloop
  endfacet
  facet normal -0 0 -1
    outer loop
      vertex 0.654309 -0.707092 24
      vertex 0.433884 -0.900955 24
      vertex 0.389635 -0.707092 24
    endloop
  endfacet
  facet normal 0 0 -1
    outer loop
      vertex 0.692998 -0.673065 24
      vertex 0.974915 -0.222519 24
      vertex 15.6366 12.4698 24
    endloop
  endfacet
  facet normal -0 0 -1
    outer loop
      vertex 0.974915 -0.222519 24
      vertex 0.692998 -0.673065 24
      vertex 0 1 24
    endloop
  endfacet
  facet normal -0 0 1
    outer loop
      vertex -1 0 24
      vertex 0.389635 -0.707092 24
      vertex 0 1 24
    endloop
  endfacet
  facet normal 0 0 1
    outer loop
      vertex 0.389635 -0.707092 24
      vertex -1 0 24
      vertex -0.707092 -0.707092 24
    endloop
  endfacet
  facet normal 0 0 1
    outer loop
      vertex 0.692998 -0.673065 24
      vertex 0.654309 -0.707092 24
      vertex 0.707092 -0.707092 24
    endloop
  endfacet
  facet normal -0.707107 0.707107 0
    outer loop
      vertex -0.00163478 0.998365 20
      vertex 0 1 24
      vertex 0 1 20
    endloop
  endfacet
  facet normal -0.707107 0.707107 0
    outer loop
      vertex -1 0 20
      vertex 0 1 24
      vertex -0.00163478 0.998365 20
    endloop
  endfacet
  facet normal -0.707107 0.707107 0
    outer loop
      vertex 0 1 24
      vertex -1 0 20
      vertex -1 0 24
    endloop
  endfacet
  facet normal -0 0 1
    outer loop
      vertex 0.974915 -0.222519 28
      vertex 0.433884 -0.900955 28
      vertex 15.6366 12.4698 28
    endloop
  endfacet
  facet normal 0 -0 1
    outer loop
      vertex 0.433884 -0.900955 28
      vertex 0.974915 -0.222519 28
      vertex 0 1 28
    endloop
  endfacet
  facet normal -0.654503 0.756059 0
    outer loop
      vertex 15.6366 12.4698 24
      vertex 0.974915 -0.222519 28
      vertex 15.6366 12.4698 28
    endloop
  endfacet
  facet normal -0.654503 0.756059 0
    outer loop
      vertex 0.974915 -0.222519 28
      vertex 15.6366 12.4698 24
      vertex 0.974915 -0.222519 24
    endloop
  endfacet
  facet normal 0.781835 0.623485 0
    outer loop
      vertex 0.974915 -0.222519 28
      vertex 0 1 24
      vertex 0 1 28
    endloop
  endfacet
  facet normal 0.781835 0.623485 0
    outer loop
      vertex 0 1 24
      vertex 0.974915 -0.222519 28
      vertex 0.974915 -0.222519 24
    endloop
  endfacet
  facet normal -0.974928 -0.222522 0
    outer loop
      vertex 0.389635 -0.707092 24
      vertex 0 1 28
      vertex 0 1 24
    endloop
  endfacet
  facet normal -0.974928 -0.222522 -0
    outer loop
      vertex 0.433884 -0.900955 28
      vertex 0.389635 -0.707092 24
      vertex 0.433884 -0.900955 24
    endloop
  endfacet
  facet normal -0.974928 -0.222522 -7.21532e-10
    outer loop
      vertex 0.389635 -0.707092 24
      vertex 0.433884 -0.900955 28
      vertex 0 1 28
    endloop
  endfacet
  facet normal 0.660414 -0.750901 0
    outer loop
      vertex 0.654309 -0.707092 24
      vertex 0.433884 -0.900955 28
      vertex 0.433884 -0.900955 24
    endloop
  endfacet
  facet normal 0.660414 -0.750901 1.56813e-08
    outer loop
      vertex 0.692998 -0.673065 24
      vertex 0.433884 -0.900955 28
      vertex 0.654309 -0.707092 24
    endloop
  endfacet
  facet normal 0.660414 -0.750901 1.96202e-09
    outer loop
      vertex 0.433884 -0.900955 28
      vertex 0.692998 -0.673065 24
      vertex 15.6366 12.4698 28
    endloop
  endfacet
  facet normal 0.660414 -0.750901 0
    outer loop
      vertex 15.6366 12.4698 28
      vertex 0.692998 -0.673065 24
      vertex 15.6366 12.4698 24
    endloop
  endfacet
  facet normal 0 0 1
    outer loop
      vertex 0 1 32
      vertex -0.974915 -0.222519 32
      vertex 0.154846 0.321548 32
    endloop
  endfacet
  facet normal 0 -0 -1
    outer loop
      vertex 0 1 32
      vertex 0.154846 0.321548 32
      vertex -0.974915 -0.222519 32
    endloop
  endfacet
  facet normal 0 0 1
    outer loop
      vertex 0.78183 0.623489 32
      vertex 0.154846 0.321548 32
      vertex 0.240784 -0.0549469 32
    endloop
  endfacet
  facet normal 0 0 -1
    outer loop
      vertex 0.78183 0.623489 32
      vertex 0.240784 -0.0549469 32
      vertex 0.154846 0.321548 32
    endloop
  endfacet
  facet normal 0 0 1
    outer loop
      vertex 0.240784 -0.0549469 32
      vertex -0.433884 -0.900955 32
      vertex 0.433884 -0.900955 32
    endloop
  endfacet
  facet normal 0 -0 -1
    outer loop
      vertex 0.240784 -0.0549469 32
      vertex 0.433884 -0.900955 32
      vertex -0.433884 -0.900955 32
    endloop
  endfacet
  facet normal -0 0 -1
    outer loop
      vertex 0.171548 -0.900955 36
      vertex 0 -1 36
      vertex 0.0571817 -0.900955 36
    endloop
  endfacet
  facet normal 0 0 1
    outer loop
      vertex 0.171548 -0.900955 36
      vertex 0.0571817 -0.900955 36
      vertex 0 -1 36
    endloop
  endfacet
  facet normal 0 0 -1
    outer loop
      vertex 0.403338 -0.767129 36
      vertex 0.342366 -0.5 36
      vertex 0.866013 -0.5 36
    endloop
  endfacet
  facet normal 0 -0 1
    outer loop
      vertex 0.403338 -0.767129 36
      vertex 0.866013 -0.5 36
      vertex 0.342366 -0.5 36
    endloop
  endfacet
  facet normal 0 0 -1
    outer loop
      vertex 0.403338 -0.767129 36
      vertex 0.288666 -0.5 36
      vertex 0.342366 -0.5 36
    endloop
  endfacet
  facet normal 0 0 -1
    outer loop
      vertex 0.171548 -0.900955 36
      vertex 0.288666 -0.5 36
      vertex 0.403338 -0.767129 36
    endloop
  endfacet
  facet normal 0 0 -1
    outer loop
      vertex 0.0571817 -0.900955 36
      vertex 0.288666 -0.5 36
      vertex 0.171548 -0.900955 36
    endloop
  endfacet
  facet normal 0 0 -1
    outer loop
      vertex 0.0571817 -0.900955 36
      vertex -0.114133 -0.5 36
      vertex 0.288666 -0.5 36
    endloop
  endfacet
  facet normal 0 -0 -1
    outer loop
      vertex -0.114133 -0.5 36
      vertex 0.0571817 -0.900955 36
      vertex -0.433884 -0.900955 36
    endloop
  endfacet
  facet normal -0 0 1
    outer loop
      vertex 0.288666 -0.5 36
      vertex 0.403338 -0.767129 36
      vertex 0.342366 -0.5 36
    endloop
  endfacet
  facet normal 0 0 1
    outer loop
      vertex 0.288666 -0.5 36
      vertex 0.171548 -0.900955 36
      vertex 0.403338 -0.767129 36
    endloop
  endfacet
  facet normal 0 0 1
    outer loop
      vertex 0.288666 -0.5 36
      vertex 0.0571817 -0.900955 36
      vertex 0.171548 -0.900955 36
    endloop
  endfacet
  facet normal -0 0 1
    outer loop
      vertex -0.114133 -0.5 36
      vertex 0.0571817 -0.900955 36
      vertex 0.288666 -0.5 36
    endloop
  endfacet
  facet normal 0 0 1
    outer loop
      vertex 0.0571817 -0.900955 36
      vertex -0.114133 -0.5 36
      vertex -0.433884 -0.900955 36
    endloop
  endfacet
  facet normal 0 0 -1
    outer loop
      vertex 0.342366 -0.5 36
      vertex 0.288666 -0.5 36
      vertex 0.327152 -0.433344 36
    endloop
  endfacet
  facet normal 0 0 1
    outer loop
      vertex 0.342366 -0.5 36
      vertex 0.327152 -0.433344 36
      vertex 0.288666 -0.5 36
    endloop
  endfacet
  facet normal 0 0 -1
    outer loop
      vertex 0.194878 -0.112511 36
      vertex 0.327152 -0.433344 36
      vertex 0.288666 -0.5 36
    endloop
  endfacet
  facet normal 0 0 -1
    outer loop
      vertex 0.327152 -0.433344 36
      vertex 0.194878 -0.112511 36
      vertex 0.262884 -0.151775 36
    endloop
  endfacet
  facet normal 0 0 -1
    outer loop
      vertex 0.262884 -0.151775 36
      vertex 0.194878 -0.112511 36
      vertex 0.240784 -0.0549469 36
    endloop
  endfacet
  facet normal 0 -0 -1
    outer loop
      vertex 0.194878 -0.112511 36
      vertex 0.288666 -0.5 36
      vertex -0.114133 -0.5 36
    endloop
  endfacet
  facet normal 0 0 1
    outer loop
      vertex 0.194878 -0.112511 36
      vertex 0.327152 -0.433344 36
      vertex 0.262884 -0.151775 36
    endloop
  endfacet
  facet normal -0 0 1
    outer loop
      vertex 0.194878 -0.112511 36
      vertex 0.262884 -0.151775 36
      vertex 0.240784 -0.0549469 36
    endloop
  endfacet
  facet normal 0 0 1
    outer loop
      vertex 0.327152 -0.433344 36
      vertex 0.194878 -0.112511 36
      vertex 0.288666 -0.5 36
    endloop
  endfacet
  facet normal 0 0 1
    outer loop
      vertex 0.288666 -0.5 36
      vertex 0.194878 -0.112511 36
      vertex -0.114133 -0.5 36
    endloop
  endfacet
  facet normal -0 0 -1
    outer loop
      vertex -0.546049 0.315268 36
      vertex -0.866013 -0.0859585 36
      vertex -0.866013 0.5 36
    endloop
  endfacet
  facet normal 0 0 1
    outer loop
      vertex -0.546049 0.315268 36
      vertex -0.866013 0.5 36
      vertex -0.866013 -0.0859585 36
    endloop
  endfacet
  facet normal 0 0 -1
    outer loop
      vertex -0.114133 -0.5 36
      vertex -0.23323 0.13466 36
      vertex 0.194878 -0.112511 36
    endloop
  endfacet
  facet normal 0 0 -1
    outer loop
      vertex -0.866013 -0.170074 36
      vertex -0.23323 0.13466 36
      vertex -0.114133 -0.5 36
    endloop
  endfacet
  facet normal 0 0 -1
    outer loop
      vertex -0.866013 -0.170074 36
      vertex -0.114133 -0.5 36
      vertex -0.866013 -0.5 36
    endloop
  endfacet
  facet normal 0 0 -1
    outer loop
      vertex -0.866013 -0.0859585 36
      vertex -0.23323 0.13466 36
      vertex -0.866013 -0.170074 36
    endloop
  endfacet
  facet normal -0 0 -1
    outer loop
      vertex -0.23323 0.13466 36
      vertex -0.866013 -0.0859585 36
      vertex -0.546049 0.315268 36
    endloop
  endfacet
  facet normal 0 0 -1
    outer loop
      vertex -0.546049 0.315268 36
      vertex 0.154846 0.321548 36
      vertex -0.23323 0.13466 36
    endloop
  endfacet
  facet normal -0 0 -1
    outer loop
      vertex 0.154846 0.321548 36
      vertex -0.546049 0.315268 36
      vertex 0 1 36
    endloop
  endfacet
  facet normal 0 0 1
    outer loop
      vertex -0.546049 0.315268 36
      vertex 0.154846 0.321548 36
      vertex 0 1 36
    endloop
  endfacet
  facet normal 0 0 1
    outer loop
      vertex 0.154846 0.321548 36
      vertex -0.546049 0.315268 36
      vertex -0.23323 0.13466 36
    endloop
  endfacet
  facet normal 0 0 1
    outer loop
      vertex -0.23323 0.13466 36
      vertex -0.114133 -0.5 36
      vertex 0.194878 -0.112511 36
    endloop
  endfacet
  facet normal 0 0 1
    outer loop
      vertex -0.866013 -0.0859585 36
      vertex -0.23323 0.13466 36
      vertex -0.546049 0.315268 36
    endloop
  endfacet
  facet normal 0 0 1
    outer loop
      vertex -0.866013 -0.170074 36
      vertex -0.23323 0.13466 36
      vertex -0.866013 -0.0859585 36
    endloop
  endfacet
  facet normal 0 0 1
    outer loop
      vertex -0.23323 0.13466 36
      vertex -0.866013 -0.170074 36
      vertex -0.114133 -0.5 36
    endloop
  endfacet
  facet normal 0 0 1
    outer loop
      vertex -0.114133 -0.5 36
      vertex -0.866013 -0.170074 36
      vertex -0.866013 -0.5 36
    endloop
  endfacet
  facet normal 0 0 -1
    outer loop
      vertex 0.327152 -0.433344 36
      vertex 0.262884 -0.151775 36
      vertex 0.433014 -0.25 36
    endloop
  endfacet
  facet normal 0 -0 1
    outer loop
      vertex 0.327152 -0.433344 36
      vertex 0.433014 -0.25 36
      vertex 0.262884 -0.151775 36
    endloop
  endfacet
  facet normal -0 0 -1
    outer loop
      vertex -0.866013 -0.170074 36
      vertex -0.974915 -0.222519 36
      vertex -0.866013 -0.0859585 36
    endloop
  endfacet
  facet normal 0 -0 1
    outer loop
      vertex -0.866013 -0.170074 36
      vertex -0.866013 -0.0859585 36
      vertex -0.974915 -0.222519 36
    endloop
  endfacet
  facet normal 0 0 -1
    outer loop
      vertex 0.433884 -0.900955 36
      vertex 0.171548 -0.900955 36
      vertex 0.403338 -0.767129 36
    endloop
  endfacet
  facet normal 0 0 1
    outer loop
      vertex 0.433884 -0.900955 36
      vertex 0.403338 -0.767129 36
      vertex 0.171548 -0.900955 36
    endloop
  endfacet
  facet normal 0 0 -1
    outer loop
      vertex 0.240784 -0.0549469 36
      vertex 0.154846 0.321548 36
      vertex 0.78183 0.623489 36
    endloop
  endfacet
  facet normal 0 -0 1
    outer loop
      vertex 0.240784 -0.0549469 36
      vertex 0.78183 0.623489 36
      vertex 0.154846 0.321548 36
    endloop
  endfacet
  facet normal -0.97493 -0.222513 0
    outer loop
      vertex 0.154846 0.321548 32
      vertex 0 1 36
      vertex 0 1 32
    endloop
  endfacet
  facet normal -0.97493 -0.222513 0
    outer loop
      vertex 0 1 36
      vertex 0.154846 0.321548 32
      vertex 0.154846 0.321548 36
    endloop
  endfacet
  facet normal 0.97493 0.222513 0
    outer loop
      vertex 0.154846 0.321548 36
      vertex 0 1 32
      vertex 0 1 36
    endloop
  endfacet
  facet normal 0.97493 0.222513 0
    outer loop
      vertex 0 1 32
      vertex 0.154846 0.321548 36
      vertex 0.154846 0.321548 32
    endloop
  endfacet
  facet normal 0.781835 -0.623485 0
    outer loop
      vertex -0.546049 0.315268 36
      vertex 0 1 32
      vertex 0 1 36
    endloop
  endfacet
  facet normal 0.781835 -0.623485 8.76134e-10
    outer loop
      vertex -0.974915 -0.222519 32
      vertex -0.546049 0.315268 36
      vertex -0.866013 -0.0859585 36
    endloop
  endfacet
  facet normal 0.781835 -0.623485 0
    outer loop
      vertex -0.974915 -0.222519 32
      vertex -0.866013 -0.0859585 36
      vertex -0.974915 -0.222519 36
    endloop
  endfacet
  facet normal 0.781835 -0.623485 -7.10773e-10
    outer loop
      vertex -0.546049 0.315268 36
      vertex -0.974915 -0.222519 32
      vertex 0 1 32
    endloop
  endfacet
  facet normal -0.781835 0.623485 0
    outer loop
      vertex 0 1 32
      vertex -0.546049 0.315268 36
      vertex 0 1 36
    endloop
  endfacet
  facet normal -0.781835 0.623485 7.10773e-10
    outer loop
      vertex -0.974915 -0.222519 32
      vertex -0.546049 0.315268 36
      vertex 0 1 32
    endloop
  endfacet
  facet normal -0.781835 0.623485 -8.76134e-10
    outer loop
      vertex -0.546049 0.315268 36
      vertex -0.974915 -0.222519 32
      vertex -0.866013 -0.0859585 36
    endloop
  endfacet
  facet normal -0.781835 0.623485 0
    outer loop
      vertex -0.866013 -0.0859585 36
      vertex -0.974915 -0.222519 32
      vertex -0.974915 -0.222519 36
    endloop
  endfacet
  facet normal -0.433886 0.900968 0
    outer loop
      vertex 0.154846 0.321548 32
      vertex -0.974915 -0.222519 32
      vertex -0.974915 -0.222519 36
    endloop
  endfacet
  facet normal 0.433886 -0.900968 0
    outer loop
      vertex 0.154846 0.321548 32
      vertex -0.974915 -0.222519 36
      vertex -0.974915 -0.222519 32
    endloop
  endfacet
  facet normal -0.781825 0.623498 0
    outer loop
      vertex 0.240784 -0.0549469 32
      vertex 0.78183 0.623489 36
      vertex 0.78183 0.623489 32
    endloop
  endfacet
  facet normal -0.781825 0.623498 0
    outer loop
      vertex 0.78183 0.623489 36
      vertex 0.240784 -0.0549469 32
      vertex 0.240784 -0.0549469 36
    endloop
  endfacet
  facet normal 0.781825 -0.623498 0
    outer loop
      vertex 0.240784 -0.0549469 36
      vertex 0.78183 0.623489 32
      vertex 0.78183 0.623489 36
    endloop
  endfacet
  facet normal 0.781825 -0.623498 0
    outer loop
      vertex 0.78183 0.623489 32
      vertex 0.240784 -0.0549469 36
      vertex 0.240784 -0.0549469 32
    endloop
  endfacet
  facet normal 0.433885 -0.900968 0
    outer loop
      vertex 0.154846 0.321548 32
      vertex 0.78183 0.623489 36
      vertex 0.154846 0.321548 36
    endloop
  endfacet
  facet normal 0.433885 -0.900968 0
    outer loop
      vertex 0.78183 0.623489 36
      vertex 0.154846 0.321548 32
      vertex 0.78183 0.623489 32
    endloop
  endfacet
  facet normal -0.433885 0.900968 0
    outer loop
      vertex 0.78183 0.623489 32
      vertex 0.154846 0.321548 36
      vertex 0.78183 0.623489 36
    endloop
  endfacet
  facet normal -0.433885 0.900968 0
    outer loop
      vertex 0.154846 0.321548 36
      vertex 0.78183 0.623489 32
      vertex 0.154846 0.321548 32
    endloop
  endfacet
  facet normal 0.781832 -0.623489 -4.9456e-10
    outer loop
      vertex -0.433884 -0.900955 32
      vertex 0.194878 -0.112511 36
      vertex -0.114133 -0.5 36
    endloop
  endfacet
  facet normal 0.781832 -0.623489 0
    outer loop
      vertex -0.433884 -0.900955 32
      vertex -0.114133 -0.5 36
      vertex -0.433884 -0.900955 36
    endloop
  endfacet
  facet normal 0.781832 -0.623489 1.82739e-08
    outer loop
      vertex 0.194878 -0.112511 36
      vertex -0.433884 -0.900955 32
      vertex 0.240784 -0.0549469 36
    endloop
  endfacet
  facet normal -0.781832 0.623489 -1.82739e-08
    outer loop
      vertex -0.433884 -0.900955 32
      vertex 0.194878 -0.112511 36
      vertex 0.240784 -0.0549469 36
    endloop
  endfacet
  facet normal -0.781832 0.623489 4.9456e-10
    outer loop
      vertex 0.194878 -0.112511 36
      vertex -0.433884 -0.900955 32
      vertex -0.114133 -0.5 36
    endloop
  endfacet
  facet normal -0.781832 0.623489 0
    outer loop
      vertex -0.114133 -0.5 36
      vertex -0.433884 -0.900955 32
      vertex -0.433884 -0.900955 36
    endloop
  endfacet
  facet normal 0 1 -0
    outer loop
      vertex 0.433884 -0.900955 32
      vertex 0.171548 -0.900955 36
      vertex 0.433884 -0.900955 36
    endloop
  endfacet
  facet normal 0 1 0
    outer loop
      vertex 0.171548 -0.900955 36
      vertex 0.433884 -0.900955 32
      vertex 0.0571817 -0.900955 36
    endloop
  endfacet
  facet normal 0 1 0
    outer loop
      vertex -0.433884 -0.900955 32
      vertex 0.0571817 -0.900955 36
      vertex 0.433884 -0.900955 32
    endloop
  endfacet
  facet normal 0 1 0
    outer loop
      vertex 0.0571817 -0.900955 36
      vertex -0.433884 -0.900955 32
      vertex -0.433884 -0.900955 36
    endloop
  endfacet
  facet normal 0 -1 0
    outer loop
      vertex -0.433884 -0.900955 32
      vertex 0.0571817 -0.900955 36
      vertex -0.433884 -0.900955 36
    endloop
  endfacet
  facet normal 0 -1 0
    outer loop
      vertex 0.433884 -0.900955 32
      vertex 0.0571817 -0.900955 36
      vertex -0.433884 -0.900955 32
    endloop
  endfacet
  facet normal 0 -1 0
    outer loop
      vertex 0.0571817 -0.900955 36
      vertex 0.433884 -0.900955 32
      vertex 0.171548 -0.900955 36
    endloop
  endfacet
  facet normal 0 -1 0
    outer loop
      vertex 0.171548 -0.900955 36
      vertex 0.433884 -0.900955 32
      vertex 0.433884 -0.900955 36
    endloop
  endfacet
  facet normal -0.974927 -0.222525 0
    outer loop
      vertex 0.240784 -0.0549469 32
      vertex 0.262884 -0.151775 36
      vertex 0.240784 -0.0549469 36
    endloop
  endfacet
  facet normal -0.974927 -0.222526 -6.47239e-09
    outer loop
      vertex 0.240784 -0.0549469 32
      vertex 0.327152 -0.433344 36
      vertex 0.262884 -0.151775 36
    endloop
  endfacet
  facet normal -0.974927 -0.222525 3.84654e-08
    outer loop
      vertex 0.240784 -0.0549469 32
      vertex 0.342366 -0.5 36
      vertex 0.327152 -0.433344 36
    endloop
  endfacet
  facet normal -0.974927 -0.222525 -1.73616e-09
    outer loop
      vertex 0.433884 -0.900955 32
      vertex 0.342366 -0.5 36
      vertex 0.240784 -0.0549469 32
    endloop
  endfacet
  facet normal -0.974927 -0.222525 1.4133e-09
    outer loop
      vertex 0.342366 -0.5 36
      vertex 0.433884 -0.900955 32
      vertex 0.403338 -0.767129 36
    endloop
  endfacet
  facet normal -0.974927 -0.222525 0
    outer loop
      vertex 0.403338 -0.767129 36
      vertex 0.433884 -0.900955 32
      vertex 0.433884 -0.900955 36
    endloop
  endfacet
  facet normal 0.974927 0.222525 0
    outer loop
      vertex 0.262884 -0.151775 36
      vertex 0.240784 -0.0549469 32
      vertex 0.240784 -0.0549469 36
    endloop
  endfacet
  facet normal 0.974927 0.222526 6.47239e-09
    outer loop
      vertex 0.327152 -0.433344 36
      vertex 0.240784 -0.0549469 32
      vertex 0.262884 -0.151775 36
    endloop
  endfacet
  facet normal 0.974927 0.222525 -3.84654e-08
    outer loop
      vertex 0.342366 -0.5 36
      vertex 0.240784 -0.0549469 32
      vertex 0.327152 -0.433344 36
    endloop
  endfacet
  facet normal 0.974927 0.222525 -1.4133e-09
    outer loop
      vertex 0.433884 -0.900955 32
      vertex 0.342366 -0.5 36
      vertex 0.403338 -0.767129 36
    endloop
  endfacet
  facet normal 0.974927 0.222525 -0
    outer loop
      vertex 0.433884 -0.900955 32
      vertex 0.403338 -0.767129 36
      vertex 0.433884 -0.900955 36
    endloop
  endfacet
  facet normal 0.974927 0.222525 1.73616e-09
    outer loop
      vertex 0.342366 -0.5 36
      vertex 0.433884 -0.900955 32
      vertex 0.240784 -0.0549469 32
    endloop
  endfacet
  facet normal 0 0 1
    outer loop
      vertex 0.866013 0.5 36
      vertex 0.433014 -0.25 36
      vertex 0.866013 -0.5 36
    endloop
  endfacet
  facet normal 0 -0 -1
    outer loop
      vertex 0.866013 0.5 36
      vertex 0.866013 -0.5 36
      vertex 0.433014 -0.25 36
    endloop
  endfacet
  facet normal 0 0 -1
    outer loop
      vertex 0.288666 -0.5 40
      vertex 0.292943 -0.169129 40
      vertex 0.433014 -0.25 40
    endloop
  endfacet
  facet normal 0 0 -1
    outer loop
      vertex -0.162468 -0.5 40
      vertex 0.288666 -0.5 40
      vertex 0.110267 -0.809006 40
    endloop
  endfacet
  facet normal 0 0 -1
    outer loop
      vertex 0.288666 -0.5 40
      vertex -0.162468 -0.5 40
      vertex 0.292943 -0.169129 40
    endloop
  endfacet
  facet normal 0 -0 -1
    outer loop
      vertex -0.162468 -0.5 40
      vertex 0.110267 -0.809006 40
      vertex -0.587784 -0.809006 40
    endloop
  endfacet
  facet normal 0 0 -1
    outer loop
      vertex 0.95105 0.309006 40
      vertex 0.866013 0.0472895 40
      vertex 0.866013 0.247223 40
    endloop
  endfacet
  facet normal 0 0 -1
    outer loop
      vertex 0.330807 -0.809006 40
      vertex 0.647124 -0.626377 40
      vertex 0.587784 -0.809006 40
    endloop
  endfacet
  facet normal -0 0 -1
    outer loop
      vertex 0.647124 -0.626377 40
      vertex 0.330807 -0.809006 40
      vertex 0.288666 -0.5 40
    endloop
  endfacet
  facet normal 0 0 -1
    outer loop
      vertex 0.647124 -0.626377 40
      vertex 0.288666 -0.5 40
      vertex 0.688186 -0.5 40
    endloop
  endfacet
  facet normal 0 -0 -1
    outer loop
      vertex 0.288666 -0.5 40
      vertex 0.330807 -0.809006 40
      vertex 0.110267 -0.809006 40
    endloop
  endfacet
  facet normal 0 0 -1
    outer loop
      vertex 0.688186 -0.5 40
      vertex 0.433014 -0.25 40
      vertex 0.716277 -0.413547 40
    endloop
  endfacet
  facet normal 0 -0 -1
    outer loop
      vertex 0.433014 -0.25 40
      vertex 0.688186 -0.5 40
      vertex 0.288666 -0.5 40
    endloop
  endfacet
  facet normal 0 0 -1
    outer loop
      vertex 0.866013 -0.5 40
      vertex 0.716277 -0.413547 40
      vertex 0.866013 0.0472895 40
    endloop
  endfacet
  facet normal 0 -0 1
    outer loop
      vertex 0.866013 -0.5 40
      vertex 0.866013 0.0472895 40
      vertex 0.716277 -0.413547 40
    endloop
  endfacet
  facet normal -0 0 -1
    outer loop
      vertex 0.866013 -0.5 40
      vertex 0.647124 -0.626377 40
      vertex 0.688186 -0.5 40
    endloop
  endfacet
  facet normal 0 0 1
    outer loop
      vertex 0.866013 -0.5 40
      vertex 0.688186 -0.5 40
      vertex 0.647124 -0.626377 40
    endloop
  endfacet
  facet normal -0 0 -1
    outer loop
      vertex 0.330807 -0.809006 40
      vertex 0 -1 40
      vertex 0.110267 -0.809006 40
    endloop
  endfacet
  facet normal 0 0 1
    outer loop
      vertex 0.330807 -0.809006 40
      vertex 0.110267 -0.809006 40
      vertex 0 -1 40
    endloop
  endfacet
  facet normal 0 0 -1
    outer loop
      vertex -0.866013 0.5 40
      vertex -0.162468 -0.5 40
      vertex -0.866013 -0.5 40
    endloop
  endfacet
  facet normal 0 0 -1
    outer loop
      vertex -0.162468 -0.5 40
      vertex -0.866013 0.5 40
      vertex 0.292943 -0.169129 40
    endloop
  endfacet
  facet normal 0 0 1
    outer loop
      vertex -0.866013 0.5 40
      vertex -0.162468 -0.5 40
      vertex 0.292943 -0.169129 40
    endloop
  endfacet
  facet normal 0 0 1
    outer loop
      vertex -0.162468 -0.5 40
      vertex -0.866013 0.5 40
      vertex -0.866013 -0.5 40
    endloop
  endfacet
  facet normal 0 0 -1
    outer loop
      vertex 0.614638 0.0645915 40
      vertex 0.866013 0.0472895 40
      vertex 0.716277 -0.413547 40
    endloop
  endfacet
  facet normal 0 0 -1
    outer loop
      vertex 0.866013 0.0472895 40
      vertex 0.614638 0.0645915 40
      vertex 0.866013 0.247223 40
    endloop
  endfacet
  facet normal 0 0 -1
    outer loop
      vertex 0.433014 -0.25 40
      vertex 0.614638 0.0645915 40
      vertex 0.716277 -0.413547 40
    endloop
  endfacet
  facet normal 0 0 -1
    outer loop
      vertex 0.614638 0.0645915 40
      vertex 0.433014 -0.25 40
      vertex 0.292943 -0.169129 40
    endloop
  endfacet
  facet normal -0 0 -1
    outer loop
      vertex 0.866013 0.247223 40
      vertex 0.614638 0.0645915 40
      vertex 0.866013 0.5 40
    endloop
  endfacet
  facet normal 0 -0 1
    outer loop
      vertex 0.866013 0.247223 40
      vertex 0.866013 0.5 40
      vertex 0.614638 0.0645915 40
    endloop
  endfacet
  facet normal 0 -1 0
    outer loop
      vertex 0.342366 -0.5 36
      vertex 0.688186 -0.5 40
      vertex 0.288666 -0.5 40
    endloop
  endfacet
  facet normal 0 -1 0
    outer loop
      vertex 0.342366 -0.5 36
      vertex 0.288666 -0.5 40
      vertex 0.288666 -0.5 36
    endloop
  endfacet
  facet normal 0 -1 0
    outer loop
      vertex 0.866013 -0.5 36
      vertex 0.688186 -0.5 40
      vertex 0.342366 -0.5 36
    endloop
  endfacet
  facet normal 0 -1 0
    outer loop
      vertex 0.688186 -0.5 40
      vertex 0.866013 -0.5 36
      vertex 0.866013 -0.5 40
    endloop
  endfacet
  facet normal 0 1 -0
    outer loop
      vertex 0.866013 -0.5 36
      vertex 0.688186 -0.5 40
      vertex 0.866013 -0.5 40
    endloop
  endfacet
  facet normal 0 1 0
    outer loop
      vertex 0.688186 -0.5 40
      vertex 0.866013 -0.5 36
      vertex 0.342366 -0.5 36
    endloop
  endfacet
  facet normal 0 1 0
    outer loop
      vertex 0.688186 -0.5 40
      vertex 0.342366 -0.5 36
      vertex 0.288666 -0.5 40
    endloop
  endfacet
  facet normal 0 1 0
    outer loop
      vertex 0.288666 -0.5 40
      vertex 0.342366 -0.5 36
      vertex 0.288666 -0.5 36
    endloop
  endfacet
  facet normal -0.86601 0.500027 0
    outer loop
      vertex 0.327152 -0.433344 36
      vertex 0.433014 -0.25 40
      vertex 0.433014 -0.25 36
    endloop
  endfacet
  facet normal -0.86601 0.500028 0
    outer loop
      vertex 0.288666 -0.5 40
      vertex 0.327152 -0.433344 36
      vertex 0.288666 -0.5 36
    endloop
  endfacet
  facet normal -0.86601 0.500027 -1.44609e-09
    outer loop
      vertex 0.327152 -0.433344 36
      vertex 0.288666 -0.5 40
      vertex 0.433014 -0.25 40
    endloop
  endfacet
  facet normal 0.86601 -0.500027 0
    outer loop
      vertex 0.433014 -0.25 40
      vertex 0.327152 -0.433344 36
      vertex 0.433014 -0.25 36
    endloop
  endfacet
  facet normal 0.86601 -0.500027 1.44609e-09
    outer loop
      vertex 0.288666 -0.5 40
      vertex 0.327152 -0.433344 36
      vertex 0.433014 -0.25 40
    endloop
  endfacet
  facet normal 0.86601 -0.500028 0
    outer loop
      vertex 0.327152 -0.433344 36
      vertex 0.288666 -0.5 40
      vertex 0.288666 -0.5 36
    endloop
  endfacet
  facet normal -0.500003 -0.866023 0
    outer loop
      vertex -0.866013 0.5 36
      vertex 0.292943 -0.169129 40
      vertex -0.866013 0.5 40
    endloop
  endfacet
  facet normal -0.500003 -0.866023 2.37833e-08
    outer loop
      vertex 0.292943 -0.169129 40
      vertex -0.866013 0.5 36
      vertex 0.433014 -0.25 40
    endloop
  endfacet
  facet normal 0.500003 0.866023 -2.37833e-08
    outer loop
      vertex -0.866013 0.5 36
      vertex 0.292943 -0.169129 40
      vertex 0.433014 -0.25 40
    endloop
  endfacet
  facet normal 0.500003 0.866023 0
    outer loop
      vertex 0.292943 -0.169129 40
      vertex -0.866013 0.5 36
      vertex -0.866013 0.5 40
    endloop
  endfacet
  facet normal 1 0 0
    outer loop
      vertex -0.866013 0.5 40
      vertex -0.866013 -0.0859585 36
      vertex -0.866013 0.5 36
    endloop
  endfacet
  facet normal 1 -0 0
    outer loop
      vertex -0.866013 -0.5 40
      vertex -0.866013 -0.0859585 36
      vertex -0.866013 0.5 40
    endloop
  endfacet
  facet normal 1 0 0
    outer loop
      vertex -0.866013 -0.0859585 36
      vertex -0.866013 -0.5 40
      vertex -0.866013 -0.170074 36
    endloop
  endfacet
  facet normal 1 0 0
    outer loop
      vertex -0.866013 -0.170074 36
      vertex -0.866013 -0.5 40
      vertex -0.866013 -0.5 36
    endloop
  endfacet
  facet normal -1 0 0
    outer loop
      vertex -0.866013 -0.0859585 36
      vertex -0.866013 0.5 40
      vertex -0.866013 0.5 36
    endloop
  endfacet
  facet normal -1 0 0
    outer loop
      vertex -0.866013 -0.5 40
      vertex -0.866013 -0.0859585 36
      vertex -0.866013 -0.170074 36
    endloop
  endfacet
  facet normal -1 0 0
    outer loop
      vertex -0.866013 -0.5 40
      vertex -0.866013 -0.170074 36
      vertex -0.866013 -0.5 36
    endloop
  endfacet
  facet normal -1 0 0
    outer loop
      vertex -0.866013 -0.0859585 36
      vertex -0.866013 -0.5 40
      vertex -0.866013 0.5 40
    endloop
  endfacet
  facet normal 0 1 -0
    outer loop
      vertex -0.114133 -0.5 36
      vertex -0.866013 -0.5 40
      vertex 0.288666 -0.5 36
    endloop
  endfacet
  facet normal 0 1 0
    outer loop
      vertex -0.866013 -0.5 40
      vertex -0.114133 -0.5 36
      vertex -0.866013 -0.5 36
    endloop
  endfacet
  facet normal 0 -1 0
    outer loop
      vertex -0.114133 -0.5 36
      vertex -0.866013 -0.5 40
      vertex -0.866013 -0.5 36
    endloop
  endfacet
  facet normal 0 -1 0
    outer loop
      vertex -0.866013 -0.5 40
      vertex -0.114133 -0.5 36
      vertex 0.288666 -0.5 36
    endloop
  endfacet
  facet normal 0.866032 -0.499988 0
    outer loop
      vertex 0 -1 36
      vertex 0.110267 -0.809006 40
      vertex 0 -1 40
    endloop
  endfacet
  facet normal 0.866032 -0.499988 -3.2627e-10
    outer loop
      vertex 0.110267 -0.809006 40
      vertex 0 -1 36
      vertex 0.288666 -0.5 40
    endloop
  endfacet
  facet normal -0.866032 0.499988 3.2627e-10
    outer loop
      vertex 0 -1 36
      vertex 0.110267 -0.809006 40
      vertex 0.288666 -0.5 40
    endloop
  endfacet
  facet normal -0.866032 0.499988 0
    outer loop
      vertex 0.110267 -0.809006 40
      vertex 0 -1 36
      vertex 0 -1 40
    endloop
  endfacet
  facet normal -0.500006 0.866022 1.5815e-09
    outer loop
      vertex 0.403338 -0.767129 36
      vertex 0 -1 40
      vertex 0.866013 -0.5 36
    endloop
  endfacet
  facet normal -0.500006 0.866022 -5.24045e-10
    outer loop
      vertex 0.171548 -0.900955 36
      vertex 0 -1 40
      vertex 0.403338 -0.767129 36
    endloop
  endfacet
  facet normal -0.500006 0.866022 0
    outer loop
      vertex 0 -1 40
      vertex 0.171548 -0.900955 36
      vertex 0 -1 36
    endloop
  endfacet
  facet normal 0.500006 -0.866022 0
    outer loop
      vertex 0.171548 -0.900955 36
      vertex 0 -1 40
      vertex 0 -1 36
    endloop
  endfacet
  facet normal 0.500006 -0.866022 5.24045e-10
    outer loop
      vertex 0.403338 -0.767129 36
      vertex 0 -1 40
      vertex 0.171548 -0.900955 36
    endloop
  endfacet
  facet normal 0.500006 -0.866022 -1.5815e-09
    outer loop
      vertex 0 -1 40
      vertex 0.403338 -0.767129 36
      vertex 0.866013 -0.5 36
    endloop
  endfacet
  facet normal 0.866032 -0.499988 0
    outer loop
      vertex 0.866013 0.5 40
      vertex 0.433014 -0.25 36
      vertex 0.866013 0.5 36
    endloop
  endfacet
  facet normal -0.866032 0.499988 0
    outer loop
      vertex 0.866013 0.5 40
      vertex 0.866013 0.5 36
      vertex 0.433014 -0.25 36
    endloop
  endfacet
  facet normal 0.500012 0.866018 -0
    outer loop
      vertex 0.866013 -0.5 36
      vertex 0.716277 -0.413547 40
      vertex 0.866013 -0.5 40
    endloop
  endfacet
  facet normal 0.500012 0.866018 -6.97145e-10
    outer loop
      vertex 0.433014 -0.25 36
      vertex 0.716277 -0.413547 40
      vertex 0.866013 -0.5 36
    endloop
  endfacet
  facet normal 0.500012 0.866018 0
    outer loop
      vertex 0.716277 -0.413547 40
      vertex 0.433014 -0.25 36
      vertex 0.433014 -0.25 40
    endloop
  endfacet
  facet normal -0.500012 -0.866018 0
    outer loop
      vertex 0.433014 -0.25 36
      vertex 0.716277 -0.413547 40
      vertex 0.433014 -0.25 40
    endloop
  endfacet
  facet normal -0.500012 -0.866018 6.97145e-10
    outer loop
      vertex 0.866013 -0.5 36
      vertex 0.716277 -0.413547 40
      vertex 0.433014 -0.25 36
    endloop
  endfacet
  facet normal -0.500012 -0.866018 0
    outer loop
      vertex 0.716277 -0.413547 40
      vertex 0.866013 -0.5 36
      vertex 0.866013 -0.5 40
    endloop
  endfacet
  facet normal -1 0 0
    outer loop
      vertex 0.866013 0.5 36
      vertex 0.866013 0.247223 40
      vertex 0.866013 0.5 40
    endloop
  endfacet
  facet normal -1 0 0
    outer loop
      vertex 0.866013 0.5 36
      vertex 0.866013 0.0472895 40
      vertex 0.866013 0.247223 40
    endloop
  endfacet
  facet normal -1 -0 -0
    outer loop
      vertex 0.866013 0.0472895 40
      vertex 0.866013 0.5 36
      vertex 0.866013 -0.5 40
    endloop
  endfacet
  facet normal 1 -0 0
    outer loop
      vertex 0.866013 0.247223 40
      vertex 0.866013 0.5 36
      vertex 0.866013 0.5 40
    endloop
  endfacet
  facet normal 1 -0 0
    outer loop
      vertex 0.866013 0.0472895 40
      vertex 0.866013 0.5 36
      vertex 0.866013 0.247223 40
    endloop
  endfacet
  facet normal 1 0 0
    outer loop
      vertex 0.866013 0.5 36
      vertex 0.866013 0.0472895 40
      vertex 0.866013 -0.5 40
    endloop
  endfacet
  facet normal 0 -1 0
    outer loop
      vertex 0.110267 -0.809006 40
      vertex -0.587784 -0.809006 44
      vertex -0.587784 -0.809006 40
    endloop
  endfacet
  facet normal 0 -1 0
    outer loop
      vertex -0.587784 -0.809006 44
      vertex 0.110267 -0.809006 40
      vertex 0.587784 -0.809006 44
    endloop
  endfacet
  facet normal 0 -1 0
    outer loop
      vertex 0.330807 -0.809006 40
      vertex 0.587784 -0.809006 44
      vertex 0.110267 -0.809006 40
    endloop
  endfacet
  facet normal 0 -1 -0
    outer loop
      vertex 0.587784 -0.809006 44
      vertex 0.330807 -0.809006 40
      vertex 0.587784 -0.809006 40
    endloop
  endfacet
  facet normal 0.951056 -0.309019 0
    outer loop
      vertex 0.95105 0.309006 44
      vertex 0.866013 0.0472895 40
      vertex 0.95105 0.309006 40
    endloop
  endfacet
  facet normal 0.951056 -0.309019 -3.45152e-09
    outer loop
      vertex 0.95105 0.309006 44
      vertex 0.716277 -0.413547 40
      vertex 0.866013 0.0472895 40
    endloop
  endfacet
  facet normal 0.951056 -0.309019 6.30528e-09
    outer loop
      vertex 0.587784 -0.809006 44
      vertex 0.716277 -0.413547 40
      vertex 0.95105 0.309006 44
    endloop
  endfacet
  facet normal 0.951056 -0.309019 -4.5604e-08
    outer loop
      vertex 0.716277 -0.413547 40
      vertex 0.587784 -0.809006 44
      vertex 0.688186 -0.5 40
    endloop
  endfacet
  facet normal 0.951056 -0.309018 2.12398e-08
    outer loop
      vertex 0.688186 -0.5 40
      vertex 0.587784 -0.809006 44
      vertex 0.647124 -0.626377 40
    endloop
  endfacet
  facet normal 0.951056 -0.309019 0
    outer loop
      vertex 0.647124 -0.626377 40
      vertex 0.587784 -0.809006 44
      vertex 0.587784 -0.809006 40
    endloop
  endfacet
  facet normal -0.587779 0.809021 0
    outer loop
      vertex 0.866013 0.247223 40
      vertex 0.95105 0.309006 44
      vertex 0.95105 0.309006 40
    endloop
  endfacet
  facet normal -0.58778 0.809021 2.5336e-09
    outer loop
      vertex 0.614638 0.0645915 40
      vertex 0.95105 0.309006 44
      vertex 0.866013 0.247223 40
    endloop
  endfacet
  facet normal -0.58778 0.809021 -2.68833e-09
    outer loop
      vertex 0.292943 -0.169129 40
      vertex 0.95105 0.309006 44
      vertex 0.614638 0.0645915 40
    endloop
  endfacet
  facet normal -0.58778 0.809021 -6.14668e-10
    outer loop
      vertex 0.95105 0.309006 44
      vertex 0.292943 -0.169129 40
      vertex -0.587784 -0.809006 44
    endloop
  endfacet
  facet normal -0.58778 0.809021 -1.48656e-09
    outer loop
      vertex -0.162468 -0.5 40
      vertex -0.587784 -0.809006 44
      vertex 0.292943 -0.169129 40
    endloop
  endfacet
  facet normal -0.58778 0.809021 0
    outer loop
      vertex -0.587784 -0.809006 44
      vertex -0.162468 -0.5 40
      vertex -0.587784 -0.809006 40
    endloop
  endfacet
  facet normal 0 0 1
    outer loop
      vertex 0.95105 0.309006 44
      vertex -0.587784 -0.809006 44
      vertex 0.587784 -0.809006 44
    endloop
  endfacet
  facet normal -0 0 -1
    outer loop
      vertex 4 0 48
      vertex 0 -1 48
      vertex 0 1 48
    endloop
  endfacet
  facet normal 0.242536 -0.970143 0
    outer loop
      vertex 0 -1 48
      vertex 4 0 52
      vertex 0 -1 52
    endloop
  endfacet
  facet normal 0.242536 -0.970143 0
    outer loop
      vertex 4 0 52
      vertex 0 -1 48
      vertex 4 0 48
    endloop
  endfacet
  facet normal -1 0 0
    outer loop
      vertex 0 -1 48
      vertex 0 1 52
      vertex 0 1 48
    endloop
  endfacet
  facet normal -1 -0 0
    outer loop
      vertex 0 1 52
      vertex 0 -1 48
      vertex 0 -1 52
    endloop
  endfacet
  facet normal 0 0 1
    outer loop
      vertex 0 1 52
      vertex 0 -1 52
      vertex 4 0 52
    endloop
  endfacet
  facet normal 0.242536 0.970143 -0
    outer loop
      vertex 4 0 48
      vertex 0 1 52
      vertex 4 0 52
    endloop
  endfacet
  facet normal 0.242536 0.970143 0
    outer loop
      vertex 0 1 52
      vertex 4 0 48
      vertex 0 1 48
    endloop
  endfacet
  facet normal 0 0 1
    outer loop
      vertex 0.95105 0.309006 56
      vertex 0.363266 -0.118027 56
      vertex 0.587784 -0.809006 56
    endloop
  endfacet
  facet normal 0 0 -1
    outer loop
      vertex 0.95105 0.309006 56
      vertex 0.587784 -0.809006 56
      vertex 0.363266 -0.118027 56
    endloop
  endfacet
  facet normal 0 0 1
    outer loop
      vertex 0 1 56
      vertex -0.587784 -0.809006 56
      vertex 0.363266 -0.118027 56
    endloop
  endfacet
  facet normal 0 -0 -1
    outer loop
      vertex 0 1 56
      vertex 0.363266 -0.118027 56
      vertex -0.587784 -0.809006 56
    endloop
  endfacet
  facet normal 0 0 -1
    outer loop
      vertex 0.587784 -0.809006 60
      vertex 0.363266 -0.118027 60
      vertex 0.95105 0.309006 60
    endloop
  endfacet
  facet normal 0 -0 1
    outer loop
      vertex 0.587784 -0.809006 60
      vertex 0.95105 0.309006 60
      vertex 0.363266 -0.118027 60
    endloop
  endfacet
  facet normal -0 0 -1
    outer loop
      vertex 0.363266 -0.118027 60
      vertex -0.587784 -0.809006 60
      vertex 0 1 60
    endloop
  endfacet
  facet normal 0 0 1
    outer loop
      vertex 0.363266 -0.118027 60
      vertex 0 1 60
      vertex -0.587784 -0.809006 60
    endloop
  endfacet
  facet normal -0.951057 -0.309015 0
    outer loop
      vertex 0.363266 -0.118027 56
      vertex 0 1 60
      vertex 0 1 56
    endloop
  endfacet
  facet normal -0.951057 -0.309015 0
    outer loop
      vertex 0 1 60
      vertex 0.363266 -0.118027 56
      vertex 0.363266 -0.118027 60
    endloop
  endfacet
  facet normal 0.951057 0.309015 0
    outer loop
      vertex 0.363266 -0.118027 60
      vertex 0 1 56
      vertex 0 1 60
    endloop
  endfacet
  facet normal 0.951057 0.309015 0
    outer loop
      vertex 0 1 56
      vertex 0.363266 -0.118027 60
      vertex 0.363266 -0.118027 56
    endloop
  endfacet
  facet normal 0.951056 -0.309018 0
    outer loop
      vertex -0.587784 -0.809006 60
      vertex 0 1 56
      vertex 0 1 60
    endloop
  endfacet
  facet normal 0.951056 -0.309018 0
    outer loop
      vertex 0 1 56
      vertex -0.587784 -0.809006 60
      vertex -0.587784 -0.809006 56
    endloop
  endfacet
  facet normal -0.951056 0.309018 0
    outer loop
      vertex -0.587784 -0.809006 56
      vertex 0 1 60
      vertex 0 1 56
    endloop
  endfacet
  facet normal -0.951056 0.309018 0
    outer loop
      vertex 0 1 60
      vertex -0.587784 -0.809006 56
      vertex -0.587784 -0.809006 60
    endloop
  endfacet
  facet normal -0.587786 0.809017 0
    outer loop
      vertex 0.363266 -0.118027 56
      vertex -0.587784 -0.809006 56
      vertex -0.587784 -0.809006 60
    endloop
  endfacet
  facet normal 0.587786 -0.809017 0
    outer loop
      vertex 0.363266 -0.118027 56
      vertex -0.587784 -0.809006 60
      vertex -0.587784 -0.809006 56
    endloop
  endfacet
  facet normal 0.58777 -0.809028 0
    outer loop
      vertex 0.363266 -0.118027 56
      vertex 0.95105 0.309006 60
      vertex 0.363266 -0.118027 60
    endloop
  endfacet
  facet normal 0.58777 -0.809028 0
    outer loop
      vertex 0.95105 0.309006 60
      vertex 0.363266 -0.118027 56
      vertex 0.95105 0.309006 56
    endloop
  endfacet
  facet normal -0.58777 0.809028 0
    outer loop
      vertex 0.95105 0.309006 56
      vertex 0.363266 -0.118027 60
      vertex 0.95105 0.309006 60
    endloop
  endfacet
  facet normal -0.58777 0.809028 0
    outer loop
      vertex 0.363266 -0.118027 60
      vertex 0.95105 0.309006 56
      vertex 0.363266 -0.118027 56
    endloop
  endfacet
  facet normal 0.951054 0.309023 -0
    outer loop
      vertex 0.587784 -0.809006 56
      vertex 0.363266 -0.118027 60
      vertex 0.587784 -0.809006 60
    endloop
  endfacet
  facet normal -0.951054 -0.309023 0
    outer loop
      vertex 0.587784 -0.809006 56
      vertex 0.587784 -0.809006 60
      vertex 0.363266 -0.118027 60
    endloop
  endfacet
  facet normal -0.951056 0.309019 0
    outer loop
      vertex 0.587784 -0.809006 56
      vertex 0.95105 0.309006 60
      vertex 0.95105 0.309006 56
    endloop
  endfacet
  facet normal -0.951056 0.309019 0
    outer loop
      vertex 0.95105 0.309006 60
      vertex 0.587784 -0.809006 56
      vertex 0.587784 -0.809006 60
    endloop
  endfacet
  facet normal 0.951056 -0.309019 0
    outer loop
      vertex 0.587784 -0.809006 60
      vertex 0.95105 0.309006 56
      vertex 0.95105 0.309006 60
    endloop
  endfacet
  facet normal 0.951056 -0.309019 0
    outer loop
      vertex 0.95105 0.309006 56
      vertex 0.587784 -0.809006 60
      vertex 0.587784 -0.809006 56
    endloop
  endfacet
endsolid OpenSCAD_Model
