solid OpenSCAD_Model
  facet normal -0 0 -1
    outer loop
      vertex 0 1 8
      vertex -0.587784 -0.809006 8
      vertex 0 10 8
    endloop
  endfacet
  facet normal 0 0 -1
    outer loop
      vertex -0.587784 -0.809006 8
      vertex 0 1 8
      vertex 0.95105 0.309006 8
    endloop
  endfacet
  facet normal 0 0 1
    outer loop
      vertex 0 10 12
      vertex -0.587784 -0.809006 12
      vertex 0 1 12
    endloop
  endfacet
  facet normal 0 0 1
    outer loop
      vertex 0.95105 0.309006 12
      vertex 0 1 12
      vertex -0.587784 -0.809006 12
    endloop
  endfacet
  facet normal 0.587794 0.80901 -0
    outer loop
      vertex 0.95105 0.309006 8
      vertex 0 1 12
      vertex 0.95105 0.309006 12
    endloop
  endfacet
  facet normal 0.587794 0.80901 0
    outer loop
      vertex 0 1 12
      vertex 0.95105 0.309006 8
      vertex 0 1 8
    endloop
  endfacet
  facet normal 1 -0 0
    outer loop
      vertex 0 1 12
      vertex 0 10 8
      vertex 0 10 12
    endloop
  endfacet
  facet normal 1 0 0
    outer loop
      vertex 0 10 8
      vertex 0 1 12
      vertex 0 1 8
    endloop
  endfacet
  facet normal -0.998525 0.0542989 0
    outer loop
      vertex -0.587784 -0.809006 8
      vertex 0 10 12
      vertex 0 10 8
    endloop
  endfacet
  facet normal -0.998525 0.0542989 0
    outer loop
      vertex 0 10 12
      vertex -0.587784 -0.809006 8
      vertex -0.587784 -0.809006 12
    endloop
  endfacet
  facet normal 0.58778 -0.809021 0
    outer loop
      vertex -0.587784 -0.809006 8
      vertex 0.95105 0.309006 12
      vertex -0.587784 -0.809006 12
    endloop
  endfacet
  facet normal 0.58778 -0.809021 0
    outer loop
      vertex 0.95105 0.309006 12
      vertex -0.587784 -0.809006 8
      vertex 0.95105 0.309006 8
    endloop
  endfacet
  facet normal 0 0 -1
    outer loop
      vertex 0 -1 16
      vertex -1 0 16
      vertex 1 0 16
    endloop
  endfacet
  facet normal -0.707107 -0.707107 0
    outer loop
      vertex 0 -1 16
      vertex -1 0 20
      vertex -1 0 16
    endloop
  endfacet
  facet normal -0.707107 -0.707107 0
    outer loop
      vertex -1 0 20
      vertex 0 -1 16
      vertex 0 -1 20
    endloop
  endfacet
  facet normal 0.707107 -0.707107 0
    outer loop
      vertex 0 -1 20
      vertex 1 0 16
      vertex 1 0 20
    endloop
  endfacet
  facet normal 0.707107 -0.707107 0
    outer loop
      vertex 1 0 16
      vertex 0 -1 20
      vertex 0 -1 16
    endloop
  endfacet
  facet normal 0 0 1
    outer loop
      vertex 1 0 20
      vertex -1 0 20
      vertex 0 -1 20
    endloop
  endfacet
  facet normal 0 1 -0
    outer loop
      vertex 1 0 16
      vertex -1 0 20
      vertex 1 0 20
    endloop
  endfacet
  facet normal 0 1 0
    outer loop
      vertex -1 0 20
      vertex 1 0 16
      vertex -1 0 16
    endloop
  endfacet
  facet normal 0 0 -1
    outer loop
      vertex 0.95105 0.309006 24
      vertex -0.95105 0.309006 24
      vertex 0 1 24
    endloop
  endfacet
  facet normal 0 -1 0
    outer loop
      vertex -0.95105 0.309006 24
      vertex 0.95105 0.309006 28
      vertex -0.95105 0.309006 28
    endloop
  endfacet
  facet normal 0 -1 -0
    outer loop
      vertex 0.95105 0.309006 28
      vertex -0.95105 0.309006 24
      vertex 0.95105 0.309006 24
    endloop
  endfacet
  facet normal 0.587794 0.80901 -0
    outer loop
      vertex 0.95105 0.309006 24
      vertex 0 1 28
      vertex 0.95105 0.309006 28
    endloop
  endfacet
  facet normal 0.587794 0.80901 0
    outer loop
      vertex 0 1 28
      vertex 0.95105 0.309006 24
      vertex 0 1 24
    endloop
  endfacet
  facet normal 0 0 1
    outer loop
      vertex 0 1 28
      vertex -0.95105 0.309006 28
      vertex 0.95105 0.309006 28
    endloop
  endfacet
  facet normal -0.587794 0.80901 0
    outer loop
      vertex 0 1 24
      vertex -0.95105 0.309006 28
      vertex 0 1 28
    endloop
  endfacet
  facet normal -0.587794 0.80901 0
    outer loop
      vertex -0.95105 0.309006 28
      vertex 0 1 24
      vertex -0.95105 0.309006 24
    endloop
  endfacet
  facet normal -0 0 -1
    outer loop
      vertex 0.707092 -0.707092 32
      vertex 0 -1 32
      vertex 0.707092 0.707092 32
    endloop
  endfacet
  facet normal -0 0 -1
    outer loop
      vertex 10 0 32
      vertex 0 -10 32
      vertex 1 0 32
    endloop
  endfacet
  facet normal 0 0 -1
    outer loop
      vertex 0.707092 0.707092 32
      vertex 1 0 32
      vertex 0.707092 -0.707092 32
    endloop
  endfacet
  facet normal 0 0 -1
    outer loop
      vertex 0.707092 0.707092 32
      vertex 10 0 32
      vertex 1 0 32
    endloop
  endfacet
  facet normal 0 0 -1
    outer loop
      vertex 0.707092 0.707092 32
      vertex 0 1 32
      vertex 10 0 32
    endloop
  endfacet
  facet normal 0 -0 -1
    outer loop
      vertex 0 1 32
      vertex 0.707092 0.707092 32
      vertex -1 0 32
    endloop
  endfacet
  facet normal 0 0 1
    outer loop
      vertex 0.347946 -0.524445 36
      vertex 0.835302 -0.397589 36
      vertex 0.891104 -0.262879 36
    endloop
  endfacet
  facet normal 0 0 1
    outer loop
      vertex 0.835302 -0.397589 36
      vertex 0.347946 -0.524445 36
      vertex 0.529972 -0.780463 36
    endloop
  endfacet
  facet normal 0 0 1
    outer loop
      vertex 0.529972 -0.780463 36
      vertex 0.347946 -0.524445 36
      vertex 0.417058 -0.827237 36
    endloop
  endfacet
  facet normal -0 0 1
    outer loop
      vertex 0.159362 -0.615262 36
      vertex 0.417058 -0.827237 36
      vertex 0.347946 -0.524445 36
    endloop
  endfacet
  facet normal 0 0 1
    outer loop
      vertex 0.417058 -0.827237 36
      vertex 0.159362 -0.615262 36
      vertex 0 -1 36
    endloop
  endfacet
  facet normal 0 0 1
    outer loop
      vertex 0.347946 -0.524445 36
      vertex 0.294312 -0.289459 36
      vertex 0.159362 -0.615262 36
    endloop
  endfacet
  facet normal 0 0 1
    outer loop
      vertex 0.294312 -0.289459 36
      vertex 1 0 36
      vertex 0.707092 0.707092 36
    endloop
  endfacet
  facet normal 0 0 1
    outer loop
      vertex 10 0 36
      vertex 0.707092 0.707092 36
      vertex 1 0 36
    endloop
  endfacet
  facet normal 0 0 1
    outer loop
      vertex 0.707092 0.707092 36
      vertex 0 1 36
      vertex 0.122155 0.464806 36
    endloop
  endfacet
  facet normal 0 0 1
    outer loop
      vertex 0 1 36
      vertex 0.707092 0.707092 36
      vertex 10 0 36
    endloop
  endfacet
  facet normal 0 0 1
    outer loop
      vertex 10 0 36
      vertex 1 0 36
      vertex 0 -10 36
    endloop
  endfacet
  facet normal 0 0 1
    outer loop
      vertex 1 0 36
      vertex 0.294312 -0.289459 36
      vertex 0.891104 -0.262879 36
    endloop
  endfacet
  facet normal 0 0 1
    outer loop
      vertex 0.891104 -0.262879 36
      vertex 0.294312 -0.289459 36
      vertex 0.347946 -0.524445 36
    endloop
  endfacet
  facet normal 0 0 -1
    outer loop
      vertex 0.433884 -0.900955 36
      vertex 0.417058 -0.827237 36
      vertex 0.529972 -0.780463 36
    endloop
  endfacet
  facet normal 0 -0 1
    outer loop
      vertex 0.433884 -0.900955 36
      vertex 0.529972 -0.780463 36
      vertex 0.417058 -0.827237 36
    endloop
  endfacet
  facet normal 0 0 -1
    outer loop
      vertex 0.974915 -0.222519 36
      vertex 0.835302 -0.397589 36
      vertex 0.891104 -0.262879 36
    endloop
  endfacet
  facet normal 0 0 1
    outer loop
      vertex 0.974915 -0.222519 36
      vertex 0.891104 -0.262879 36
      vertex 0.835302 -0.397589 36
    endloop
  endfacet
  facet normal 0 0 -1
    outer loop
      vertex -0.697564 0.125271 36
      vertex 0.294312 -0.289459 36
      vertex 0.159362 -0.615262 36
    endloop
  endfacet
  facet normal 0 0 -1
    outer loop
      vertex -0.697564 0.125271 36
      vertex 0.159362 -0.615262 36
      vertex -0.433884 -0.900955 36
    endloop
  endfacet
  facet normal 0 0 -1
    outer loop
      vertex 0.294312 -0.289459 36
      vertex -0.697564 0.125271 36
      vertex 0.122155 0.464806 36
    endloop
  endfacet
  facet normal 0 -0 -1
    outer loop
      vertex -0.697564 0.125271 36
      vertex -0.433884 -0.900955 36
      vertex -0.974915 -0.222519 36
    endloop
  endfacet
  facet normal -0 0 1
    outer loop
      vertex -0.697564 0.125271 36
      vertex 0.294312 -0.289459 36
      vertex 0.122155 0.464806 36
    endloop
  endfacet
  facet normal 0 0 1
    outer loop
      vertex 0.294312 -0.289459 36
      vertex -0.697564 0.125271 36
      vertex 0.159362 -0.615262 36
    endloop
  endfacet
  facet normal 0 0 1
    outer loop
      vertex 0.159362 -0.615262 36
      vertex -0.697564 0.125271 36
      vertex -0.433884 -0.900955 36
    endloop
  endfacet
  facet normal 0 0 1
    outer loop
      vertex -0.433884 -0.900955 36
      vertex -0.697564 0.125271 36
      vertex -0.974915 -0.222519 36
    endloop
  endfacet
  facet normal 0 0 1
    outer loop
      vertex 0.122155 0.464806 36
      vertex 0 1 36
      vertex -0.697564 0.125271 36
    endloop
  endfacet
  facet normal 0 -0 1
    outer loop
      vertex -0.697564 0.125271 36
      vertex 0 1 36
      vertex -1 0 36
    endloop
  endfacet
  facet normal 0 -0 1
    outer loop
      vertex 0.707092 -0.707092 36
      vertex 0.835302 -0.397589 36
      vertex 0.529972 -0.780463 36
    endloop
  endfacet
  facet normal 0.0995037 0.995037 -0
    outer loop
      vertex 10 0 32
      vertex 0 1 36
      vertex 10 0 36
    endloop
  endfacet
  facet normal 0.0995037 0.995037 0
    outer loop
      vertex 0 1 36
      vertex 10 0 32
      vertex 0 1 32
    endloop
  endfacet
  facet normal -0.707107 0.707107 0
    outer loop
      vertex -1 0 32
      vertex 0 1 36
      vertex 0 1 32
    endloop
  endfacet
  facet normal -0.707107 0.707107 0
    outer loop
      vertex 0 1 36
      vertex -1 0 32
      vertex -1 0 36
    endloop
  endfacet
  facet normal 0.382679 -0.923881 0
    outer loop
      vertex -1 0 32
      vertex -0.697564 0.125271 36
      vertex -1 0 36
    endloop
  endfacet
  facet normal 0.38268 -0.923881 -2.39332e-09
    outer loop
      vertex -0.697564 0.125271 36
      vertex -1 0 32
      vertex 0.122155 0.464806 36
    endloop
  endfacet
  facet normal 0.38268 -0.923881 -5.60516e-10
    outer loop
      vertex 0.707092 0.707092 32
      vertex 0.122155 0.464806 36
      vertex -1 0 32
    endloop
  endfacet
  facet normal 0.38268 -0.923881 0
    outer loop
      vertex 0.122155 0.464806 36
      vertex 0.707092 0.707092 32
      vertex 0.707092 0.707092 36
    endloop
  endfacet
  facet normal -0.923881 0.38268 0
    outer loop
      vertex 0.707092 0.707092 32
      vertex 0.294312 -0.289459 36
      vertex 0.707092 0.707092 36
    endloop
  endfacet
  facet normal -0.923881 0.38268 1.65903e-09
    outer loop
      vertex 0 -1 32
      vertex 0.294312 -0.289459 36
      vertex 0.707092 0.707092 32
    endloop
  endfacet
  facet normal -0.923881 0.38268 -5.37467e-09
    outer loop
      vertex 0.294312 -0.289459 36
      vertex 0 -1 32
      vertex 0.159362 -0.615262 36
    endloop
  endfacet
  facet normal -0.923881 0.382679 0
    outer loop
      vertex 0.159362 -0.615262 36
      vertex 0 -1 32
      vertex 0 -1 36
    endloop
  endfacet
  facet normal 0.382706 -0.92387 0
    outer loop
      vertex 0 -1 32
      vertex 0.417058 -0.827237 36
      vertex 0 -1 36
    endloop
  endfacet
  facet normal 0.382706 -0.92387 1.21447e-09
    outer loop
      vertex 0.707092 -0.707092 32
      vertex 0.417058 -0.827237 36
      vertex 0 -1 32
    endloop
  endfacet
  facet normal 0.382706 -0.92387 -2.0384e-08
    outer loop
      vertex 0.417058 -0.827237 36
      vertex 0.707092 -0.707092 32
      vertex 0.529972 -0.780463 36
    endloop
  endfacet
  facet normal 0.382706 -0.92387 0
    outer loop
      vertex 0.529972 -0.780463 36
      vertex 0.707092 -0.707092 32
      vertex 0.707092 -0.707092 36
    endloop
  endfacet
  facet normal 0.92387 -0.382706 0
    outer loop
      vertex 0.891104 -0.262879 36
      vertex 1 0 32
      vertex 1 0 36
    endloop
  endfacet
  facet normal 0.92387 -0.382706 1.89123e-08
    outer loop
      vertex 0.835302 -0.397589 36
      vertex 1 0 32
      vertex 0.891104 -0.262879 36
    endloop
  endfacet
  facet normal 0.92387 -0.382706 0
    outer loop
      vertex 0.707092 -0.707092 32
      vertex 0.835302 -0.397589 36
      vertex 0.707092 -0.707092 36
    endloop
  endfacet
  facet normal 0.92387 -0.382706 -1.98747e-09
    outer loop
      vertex 0.835302 -0.397589 36
      vertex 0.707092 -0.707092 32
      vertex 1 0 32
    endloop
  endfacet
  facet normal -0.995037 0.0995037 0
    outer loop
      vertex 0 -10 32
      vertex 1 0 36
      vertex 1 0 32
    endloop
  endfacet
  facet normal -0.995037 0.0995037 0
    outer loop
      vertex 1 0 36
      vertex 0 -10 32
      vertex 0 -10 36
    endloop
  endfacet
  facet normal 0.707107 -0.707107 0
    outer loop
      vertex 0 -10 36
      vertex 10 0 32
      vertex 10 0 36
    endloop
  endfacet
  facet normal 0.707107 -0.707107 0
    outer loop
      vertex 10 0 32
      vertex 0 -10 36
      vertex 0 -10 32
    endloop
  endfacet
  facet normal 0 0 -1
    outer loop
      vertex 0.433884 -0.900955 40
      vertex 0.347946 -0.524445 40
      vertex 0.974915 -0.222519 40
    endloop
  endfacet
  facet normal 0 -0 1
    outer loop
      vertex 0.433884 -0.900955 40
      vertex 0.974915 -0.222519 40
      vertex 0.347946 -0.524445 40
    endloop
  endfacet
  facet normal 0 0 -1
    outer loop
      vertex -0.974915 -0.222519 40
      vertex 0.347946 -0.524445 40
      vertex -0.433884 -0.900955 40
    endloop
  endfacet
  facet normal 0 0 -1
    outer loop
      vertex 0.347946 -0.524445 40
      vertex -0.974915 -0.222519 40
      vertex 0 1 40
    endloop
  endfacet
  facet normal -0 0 1
    outer loop
      vertex -0.974915 -0.222519 40
      vertex 0.347946 -0.524445 40
      vertex 0 1 40
    endloop
  endfacet
  facet normal 0 0 1
    outer loop
      vertex 0.347946 -0.524445 40
      vertex -0.974915 -0.222519 40
      vertex -0.433884 -0.900955 40
    endloop
  endfacet
  facet normal -0.974928 -0.222522 0
    outer loop
      vertex 0.122155 0.464806 36
      vertex 0 1 40
      vertex 0 1 36
    endloop
  endfacet
  facet normal -0.974928 -0.222522 6.13436e-10
    outer loop
      vertex 0.347946 -0.524445 40
      vertex 0.122155 0.464806 36
      vertex 0.294312 -0.289459 36
    endloop
  endfacet
  facet normal -0.974928 -0.222522 -0
    outer loop
      vertex 0.347946 -0.524445 40
      vertex 0.294312 -0.289459 36
      vertex 0.347946 -0.524445 36
    endloop
  endfacet
  facet normal -0.974928 -0.222522 -1.99578e-10
    outer loop
      vertex 0.122155 0.464806 36
      vertex 0.347946 -0.524445 40
      vertex 0 1 40
    endloop
  endfacet
  facet normal 0.974928 0.222522 0
    outer loop
      vertex 0 1 40
      vertex 0.122155 0.464806 36
      vertex 0 1 36
    endloop
  endfacet
  facet normal 0.974928 0.222522 1.99578e-10
    outer loop
      vertex 0.347946 -0.524445 40
      vertex 0.122155 0.464806 36
      vertex 0 1 40
    endloop
  endfacet
  facet normal 0.974928 0.222522 -6.13436e-10
    outer loop
      vertex 0.122155 0.464806 36
      vertex 0.347946 -0.524445 40
      vertex 0.294312 -0.289459 36
    endloop
  endfacet
  facet normal 0.974928 0.222522 0
    outer loop
      vertex 0.294312 -0.289459 36
      vertex 0.347946 -0.524445 40
      vertex 0.347946 -0.524445 36
    endloop
  endfacet
  facet normal 0.781835 -0.623485 0
    outer loop
      vertex 0 1 40
      vertex -0.697564 0.125271 36
      vertex 0 1 36
    endloop
  endfacet
  facet normal 0.781835 -0.623485 4.31786e-09
    outer loop
      vertex -0.974915 -0.222519 40
      vertex -0.697564 0.125271 36
      vertex 0 1 40
    endloop
  endfacet
  facet normal 0.781835 -0.623485 0
    outer loop
      vertex -0.697564 0.125271 36
      vertex -0.974915 -0.222519 40
      vertex -0.974915 -0.222519 36
    endloop
  endfacet
  facet normal -0.781835 0.623485 0
    outer loop
      vertex -0.697564 0.125271 36
      vertex 0 1 40
      vertex 0 1 36
    endloop
  endfacet
  facet normal -0.781835 0.623485 0
    outer loop
      vertex -0.974915 -0.222519 40
      vertex -0.697564 0.125271 36
      vertex -0.974915 -0.222519 36
    endloop
  endfacet
  facet normal -0.781835 0.623485 -4.31786e-09
    outer loop
      vertex -0.697564 0.125271 36
      vertex -0.974915 -0.222519 40
      vertex 0 1 40
    endloop
  endfacet
  facet normal 0.781834 0.623487 0
    outer loop
      vertex -0.433884 -0.900955 40
      vertex -0.974915 -0.222519 36
      vertex -0.974915 -0.222519 40
    endloop
  endfacet
  facet normal 0.781834 0.623487 0
    outer loop
      vertex -0.974915 -0.222519 36
      vertex -0.433884 -0.900955 40
      vertex -0.433884 -0.900955 36
    endloop
  endfacet
  facet normal -0.781834 -0.623487 0
    outer loop
      vertex -0.433884 -0.900955 36
      vertex -0.974915 -0.222519 40
      vertex -0.974915 -0.222519 36
    endloop
  endfacet
  facet normal -0.781834 -0.623487 0
    outer loop
      vertex -0.974915 -0.222519 40
      vertex -0.433884 -0.900955 36
      vertex -0.433884 -0.900955 40
    endloop
  endfacet
  facet normal -0.433885 0.900968 1.63717e-08
    outer loop
      vertex 0.159362 -0.615262 36
      vertex -0.433884 -0.900955 40
      vertex 0.347946 -0.524445 36
    endloop
  endfacet
  facet normal -0.433885 0.900968 0
    outer loop
      vertex -0.433884 -0.900955 40
      vertex 0.159362 -0.615262 36
      vertex -0.433884 -0.900955 36
    endloop
  endfacet
  facet normal 0.433885 -0.900968 0
    outer loop
      vertex 0.159362 -0.615262 36
      vertex -0.433884 -0.900955 40
      vertex -0.433884 -0.900955 36
    endloop
  endfacet
  facet normal 0.433885 -0.900968 -1.63717e-08
    outer loop
      vertex -0.433884 -0.900955 40
      vertex 0.159362 -0.615262 36
      vertex 0.347946 -0.524445 36
    endloop
  endfacet
  facet normal 0.433876 -0.900972 0
    outer loop
      vertex 0.891104 -0.262879 36
      vertex 0.347946 -0.524445 40
      vertex 0.347946 -0.524445 36
    endloop
  endfacet
  facet normal 0.433876 -0.900972 -2.39748e-09
    outer loop
      vertex 0.347946 -0.524445 40
      vertex 0.891104 -0.262879 36
      vertex 0.974915 -0.222519 40
    endloop
  endfacet
  facet normal 0.433876 -0.900973 0
    outer loop
      vertex 0.974915 -0.222519 40
      vertex 0.891104 -0.262879 36
      vertex 0.974915 -0.222519 36
    endloop
  endfacet
  facet normal -0.433876 0.900973 0
    outer loop
      vertex 0.891104 -0.262879 36
      vertex 0.974915 -0.222519 40
      vertex 0.974915 -0.222519 36
    endloop
  endfacet
  facet normal -0.433876 0.900972 2.39748e-09
    outer loop
      vertex 0.974915 -0.222519 40
      vertex 0.891104 -0.262879 36
      vertex 0.347946 -0.524445 40
    endloop
  endfacet
  facet normal -0.433876 0.900972 0
    outer loop
      vertex 0.347946 -0.524445 40
      vertex 0.891104 -0.262879 36
      vertex 0.347946 -0.524445 36
    endloop
  endfacet
  facet normal 0.974927 0.222524 -0
    outer loop
      vertex 0.433884 -0.900955 36
      vertex 0.347946 -0.524445 40
      vertex 0.433884 -0.900955 40
    endloop
  endfacet
  facet normal -0.974927 -0.222524 0
    outer loop
      vertex 0.433884 -0.900955 36
      vertex 0.433884 -0.900955 40
      vertex 0.347946 -0.524445 40
    endloop
  endfacet
  facet normal -0.781834 0.623487 0
    outer loop
      vertex 0.835302 -0.397589 36
      vertex 0.974915 -0.222519 40
      vertex 0.974915 -0.222519 36
    endloop
  endfacet
  facet normal -0.781834 0.623487 -7.26096e-09
    outer loop
      vertex 0.433884 -0.900955 40
      vertex 0.835302 -0.397589 36
      vertex 0.529972 -0.780463 36
    endloop
  endfacet
  facet normal -0.781834 0.623487 0
    outer loop
      vertex 0.433884 -0.900955 40
      vertex 0.529972 -0.780463 36
      vertex 0.433884 -0.900955 36
    endloop
  endfacet
  facet normal -0.781834 0.623487 -1.8165e-09
    outer loop
      vertex 0.835302 -0.397589 36
      vertex 0.433884 -0.900955 40
      vertex 0.974915 -0.222519 40
    endloop
  endfacet
  facet normal 0.781834 -0.623487 0
    outer loop
      vertex 0.974915 -0.222519 40
      vertex 0.835302 -0.397589 36
      vertex 0.974915 -0.222519 36
    endloop
  endfacet
  facet normal 0.781834 -0.623487 1.8165e-09
    outer loop
      vertex 0.433884 -0.900955 40
      vertex 0.835302 -0.397589 36
      vertex 0.974915 -0.222519 40
    endloop
  endfacet
  facet normal 0.781834 -0.623487 7.26096e-09
    outer loop
      vertex 0.835302 -0.397589 36
      vertex 0.433884 -0.900955 40
      vertex 0.529972 -0.780463 36
    endloop
  endfacet
  facet normal 0.781834 -0.623487 0
    outer loop
      vertex 0.529972 -0.780463 36
      vertex 0.433884 -0.900955 40
      vertex 0.433884 -0.900955 36
    endloop
  endfacet
  facet normal 0 0 -1
    outer loop
      vertex -0.34201 -0.939682 48
      vertex -6.42787 7.66043 48
      vertex -0.984802 0.173645 48
    endloop
  endfacet
  facet normal 0 0 -1
    outer loop
      vertex 0 1 48
      vertex -6.42787 7.66043 48
      vertex 0.642776 0.766037 48
    endloop
  endfacet
  facet normal 0 0 -1
    outer loop
      vertex -6.42787 7.66043 48
      vertex 0 1 48
      vertex -0.984802 0.173645 48
    endloop
  endfacet
  facet normal 0 0 1
    outer loop
      vertex 0 1 52
      vertex -6.42787 7.66043 52
      vertex -0.984802 0.173645 52
    endloop
  endfacet
  facet normal 0 0 1
    outer loop
      vertex -6.42787 7.66043 52
      vertex 0 1 52
      vertex 0.642776 0.766037 52
    endloop
  endfacet
  facet normal 0 0 1
    outer loop
      vertex -0.34201 -0.939682 52
      vertex -0.984802 0.173645 52
      vertex -6.42787 7.66043 52
    endloop
  endfacet
  facet normal 0.642791 -0.766041 0
    outer loop
      vertex -0.984802 0.173645 48
      vertex 0 1 52
      vertex -0.984802 0.173645 52
    endloop
  endfacet
  facet normal 0.642791 -0.766041 0
    outer loop
      vertex 0 1 52
      vertex -0.984802 0.173645 48
      vertex 0 1 48
    endloop
  endfacet
  facet normal -0.342035 -0.939687 0
    outer loop
      vertex 0 1 48
      vertex 0.642776 0.766037 52
      vertex 0 1 52
    endloop
  endfacet
  facet normal -0.342035 -0.939687 -0
    outer loop
      vertex 0.642776 0.766037 52
      vertex 0 1 48
      vertex 0.642776 0.766037 48
    endloop
  endfacet
  facet normal 0.698127 0.715974 -0
    outer loop
      vertex 0.642776 0.766037 48
      vertex -6.42787 7.66043 52
      vertex 0.642776 0.766037 52
    endloop
  endfacet
  facet normal 0.698127 0.715974 0
    outer loop
      vertex -6.42787 7.66043 52
      vertex 0.642776 0.766037 48
      vertex -6.42787 7.66043 48
    endloop
  endfacet
  facet normal -0.816288 -0.577645 0
    outer loop
      vertex -0.34201 -0.939682 48
      vertex -6.42787 7.66043 52
      vertex -6.42787 7.66043 48
    endloop
  endfacet
  facet normal -0.816288 -0.577645 0
    outer loop
      vertex -6.42787 7.66043 52
      vertex -0.34201 -0.939682 48
      vertex -0.34201 -0.939682 52
    endloop
  endfacet
  facet normal 0.866021 0.500007 0
    outer loop
      vertex -0.34201 -0.939682 52
      vertex -0.984802 0.173645 48
      vertex -0.984802 0.173645 52
    endloop
  endfacet
  facet normal 0.866021 0.500007 0
    outer loop
      vertex -0.984802 0.173645 48
      vertex -0.34201 -0.939682 52
      vertex -0.34201 -0.939682 48
    endloop
  endfacet
endsolid OpenSCAD_Model
